<svg width="344" height="326" viewBox="0 0 344 326" fill="none" xmlns="http://www.w3.org/2000/svg">
<path d="M340.262 172.41H337.065V171.863C337.063 170.37 336.469 168.939 335.413 167.883C334.357 166.827 332.926 166.233 331.433 166.231H329.268C327.773 166.231 326.34 166.824 325.282 167.88C324.225 168.936 323.63 170.369 323.628 171.863V172.41H320.438C320.012 172.409 319.59 172.493 319.196 172.655C318.802 172.818 318.444 173.057 318.142 173.358C317.841 173.66 317.602 174.018 317.439 174.412C317.277 174.806 317.193 175.228 317.194 175.654V190.432C317.194 191.292 317.536 192.117 318.144 192.725C318.753 193.334 319.578 193.676 320.438 193.676H340.262C341.122 193.674 341.946 193.331 342.554 192.723C343.162 192.115 343.504 191.292 343.506 190.432V175.654C343.506 174.794 343.164 173.969 342.556 173.36C341.948 172.752 341.123 172.41 340.262 172.41ZM325.169 171.863C325.171 170.778 325.604 169.737 326.372 168.97C327.141 168.203 328.182 167.772 329.268 167.772H331.433C332.518 167.772 333.558 168.203 334.326 168.97C335.093 169.738 335.524 170.778 335.524 171.863V172.41H325.169V171.863Z" fill="#263238"/>
<path d="M336.256 181.533H332.172V177.457H328.52V181.533H324.437V185.193H328.52V189.268H332.172V185.193H336.256V181.533Z" fill="white"/>
<path d="M333.945 84.3445C333.31 84.3445 332.681 84.2193 332.094 83.9761C331.508 83.7328 330.975 83.3763 330.526 82.9269C330.077 82.4775 329.722 81.944 329.479 81.357C329.237 80.77 329.113 80.141 329.114 79.5059V66.4694C329.113 65.8344 329.237 65.2053 329.479 64.6183C329.722 64.0313 330.077 63.4979 330.526 63.0485C330.975 62.599 331.508 62.2425 332.094 61.9993C332.681 61.756 333.31 61.6308 333.945 61.6308C334.58 61.6308 335.209 61.756 335.795 61.9993C336.382 62.2425 336.915 62.599 337.363 63.0485C337.812 63.4979 338.168 64.0313 338.41 64.6183C338.652 65.2053 338.777 65.8344 338.776 66.4694V79.4828C338.78 80.1198 338.658 80.7513 338.417 81.341C338.176 81.9307 337.821 82.4668 337.372 82.9187C336.923 83.3706 336.389 83.7292 335.801 83.9739C335.212 84.2186 334.582 84.3445 333.945 84.3445Z" fill="white" stroke="#263238" stroke-linecap="round" stroke-linejoin="round"/>
<path d="M333.945 84.3445C333.31 84.3445 332.681 84.2193 332.094 83.976C331.508 83.7327 330.975 83.3762 330.526 82.9268C330.077 82.4774 329.722 81.9439 329.479 81.3569C329.237 80.7699 329.113 80.1409 329.114 79.5058V72.9953H338.776V79.5058C338.777 80.1409 338.652 80.7699 338.41 81.3569C338.168 81.9439 337.812 82.4774 337.363 82.9268C336.915 83.3762 336.382 83.7327 335.795 83.976C335.209 84.2193 334.58 84.3445 333.945 84.3445Z" fill="#263238" stroke="#263238" stroke-linecap="round" stroke-linejoin="round"/>
<path d="M309.644 65.1442C309.246 64.648 308.951 64.0783 308.775 63.4677C308.598 62.8571 308.545 62.2177 308.616 61.5862C308.688 60.9547 308.883 60.3435 309.192 59.7879C309.501 59.2323 309.916 58.7431 310.414 58.3485L320.561 50.1969C321.566 49.3981 322.847 49.0306 324.122 49.1751C325.398 49.3195 326.564 49.9641 327.365 50.9673C328.163 51.9709 328.53 53.2504 328.386 54.5246C328.241 55.7988 327.597 56.9636 326.594 57.763L316.439 65.9069C315.943 66.3036 315.374 66.5986 314.764 66.775C314.153 66.9513 313.514 67.0057 312.883 66.9348C312.252 66.864 311.641 66.6693 311.085 66.3621C310.529 66.0548 310.039 65.6409 309.644 65.1442Z" fill="white" stroke="#263238" stroke-linecap="round" stroke-linejoin="round"/>
<path d="M309.644 65.1442C309.246 64.6481 308.951 64.0783 308.775 63.4677C308.598 62.8571 308.545 62.2177 308.616 61.5862C308.688 60.9547 308.883 60.3435 309.192 59.7879C309.501 59.2323 309.916 58.7431 310.414 58.3485L315.492 54.2727L321.54 61.8157L316.462 65.8838C315.967 66.2854 315.397 66.5849 314.786 66.7652C314.174 66.9454 313.533 67.0028 312.899 66.9341C312.265 66.8653 311.651 66.6718 311.092 66.3645C310.534 66.0573 310.041 65.6426 309.644 65.1442Z" fill="#263238" stroke="#263238" stroke-linecap="round" stroke-linejoin="round"/>
<path d="M261.327 29.6713C260.724 29.6716 260.137 29.8602 259.647 30.2107L248.421 21.4965C248.972 20.4783 249.23 19.3278 249.167 18.1721C249.105 17.0163 248.724 15.9004 248.067 14.9475L254.924 6.17941C255.504 6.40319 256.141 6.43531 256.741 6.27106C257.341 6.10682 257.873 5.75484 258.258 5.26666C258.643 4.77848 258.862 4.17974 258.883 3.55811C258.903 2.93647 258.724 2.3246 258.372 1.81207C258.02 1.29954 257.512 0.913273 256.925 0.70983C256.337 0.506386 255.699 0.496448 255.106 0.681473C254.512 0.866497 253.993 1.23677 253.625 1.73806C253.256 2.23936 253.058 2.84536 253.06 3.46733C253.056 4.06675 253.242 4.65194 253.591 5.13927L246.919 13.6839C246.024 12.9305 244.937 12.4412 243.78 12.2711C242.623 12.101 241.441 12.2567 240.367 12.7207C239.293 13.1848 238.37 13.9389 237.701 14.8983C237.032 15.8578 236.643 16.9847 236.579 18.1527H228.782C228.697 17.4605 228.366 16.822 227.85 16.353C227.334 15.884 226.667 15.6157 225.97 15.597C225.272 15.5782 224.592 15.8102 224.051 16.2507C223.511 16.6913 223.146 17.3112 223.024 17.9977C222.902 18.6842 223.03 19.3919 223.385 19.9919C223.74 20.592 224.299 21.0447 224.96 21.2678C225.62 21.4908 226.339 21.4694 226.985 21.2074C227.632 20.9454 228.162 20.4602 228.481 19.84H236.725C236.967 20.9603 237.509 21.9936 238.293 22.8288C239.078 23.664 240.075 24.2695 241.178 24.5801C242.281 24.8907 243.448 24.8947 244.553 24.5917C245.659 24.2887 246.66 23.6901 247.451 22.8603L258.615 31.5436C258.395 32.1228 258.365 32.7572 258.531 33.3542C258.697 33.9512 259.05 34.4795 259.537 34.8618C260.025 35.2442 260.622 35.4606 261.242 35.4794C261.861 35.4982 262.47 35.3185 262.98 34.9665C263.49 34.6144 263.874 34.1086 264.076 33.5227C264.278 32.9369 264.287 32.3019 264.103 31.7104C263.918 31.1189 263.549 30.602 263.049 30.2351C262.55 29.8682 261.946 29.6707 261.327 29.6713Z" fill="#263238"/>
<path d="M33.2884 84.4369C32.3552 84.4349 31.4608 84.0633 30.8009 83.4034C30.141 82.7435 29.7694 81.8491 29.7673 80.9159V51.6376H36.8095V80.9159C36.8095 81.8497 36.4385 82.7453 35.7782 83.4056C35.1179 84.066 34.2223 84.4369 33.2884 84.4369Z" fill="white" stroke="#263238" stroke-linecap="round" stroke-linejoin="round"/>
<path d="M33.2884 84.437C32.3552 84.435 31.4608 84.0633 30.8009 83.4034C30.141 82.7435 29.7694 81.8491 29.7673 80.9159V62.9098H36.8095V80.9159C36.8095 81.8497 36.4385 82.7453 35.7782 83.4057C35.1179 84.066 34.2223 84.437 33.2884 84.437Z" fill="#263238" stroke="#263238" stroke-linecap="round" stroke-linejoin="round"/>
<path d="M37.8185 49.9272H28.7654V52.4929H37.8185V49.9272Z" fill="white" stroke="#263238" stroke-linecap="round" stroke-linejoin="round"/>
<path d="M22.617 84.4369C21.6838 84.4349 20.7894 84.0633 20.1295 83.4034C19.4696 82.7435 19.098 81.8491 19.0959 80.9159V51.6376H26.1381V80.9159C26.1381 81.8497 25.7672 82.7453 25.1068 83.4056C24.4465 84.066 23.5509 84.4369 22.617 84.4369Z" fill="white" stroke="#263238" stroke-linecap="round" stroke-linejoin="round"/>
<path d="M22.617 84.437C21.6838 84.435 20.7894 84.0633 20.1295 83.4034C19.4696 82.7435 19.098 81.8491 19.0959 80.9159V62.9098H26.1381V80.9159C26.1381 81.8497 25.7672 82.7453 25.1068 83.4057C24.4465 84.066 23.5509 84.437 22.617 84.437Z" fill="#263238" stroke="#263238" stroke-linecap="round" stroke-linejoin="round"/>
<path d="M27.1474 49.9272H18.0942V52.4929H27.1474V49.9272Z" fill="white" stroke="#263238" stroke-linecap="round" stroke-linejoin="round"/>
<path d="M124.205 21.065L127.009 14.3311C127.057 14.2226 127.136 14.1308 127.236 14.0677C127.337 14.0045 127.453 13.9728 127.572 13.9766C127.691 13.9825 127.805 14.0249 127.898 14.098C127.992 14.1711 128.061 14.2713 128.096 14.385L131.494 25.5878L134.082 17.3359C134.118 17.2198 134.189 17.1179 134.286 17.0446C134.383 16.9713 134.5 16.9303 134.622 16.9276C134.742 16.9308 134.858 16.969 134.957 17.0374C135.055 17.1059 135.132 17.2016 135.176 17.3128L136.617 21.458H144.407C146.001 19.792 146.928 17.5985 147.011 15.2942C147.026 13.1418 146.245 11.0598 144.818 9.44806C143.392 7.83635 141.42 6.80854 139.281 6.56203C137.143 6.31553 134.989 6.86771 133.233 8.11252C131.477 9.35734 130.243 11.207 129.768 13.3063C129.278 11.2217 128.04 9.38976 126.288 8.15884C124.535 6.92792 122.392 6.38391 120.265 6.63029C118.138 6.87667 116.175 7.89625 114.751 9.49511C113.327 11.094 112.54 13.1606 112.54 15.3019C112.625 17.4359 113.426 19.4793 114.813 21.1036L124.205 21.065Z" fill="#263238"/>
<path d="M136.209 22.6137C136.089 22.6142 135.972 22.5773 135.874 22.5083C135.776 22.4393 135.702 22.3415 135.662 22.2285L134.66 19.3469L132.033 27.722C131.995 27.8399 131.921 27.943 131.822 28.0164C131.722 28.0897 131.602 28.1296 131.478 28.1303C131.354 28.1299 131.234 28.0891 131.135 28.014C131.036 27.9389 130.965 27.8337 130.931 27.7143L127.456 16.2573L125.145 21.8664C125.101 21.9712 125.027 22.0607 124.932 22.1237C124.838 22.1868 124.727 22.2205 124.613 22.2208H115.745C117.648 24.3473 120.021 26.2273 121.793 27.9763C124.474 30.6267 127.102 33.3696 129.837 35.9276C133.343 32.4681 136.871 28.9933 140.346 25.5338C141.309 24.5707 142.357 23.6153 143.328 22.6137H136.209Z" fill="#263238"/>
<path d="M6.23571 194.826L10.0137 196.137L14.1016 184.351L10.3236 183.041L6.23571 194.826Z" fill="white" stroke="#263238" stroke-miterlimit="10"/>
<path d="M4.44441 196.697L10.2751 198.72L11.0453 196.499L5.21453 194.477L4.44441 196.697Z" fill="white" stroke="#263238" stroke-miterlimit="10"/>
<path d="M6.15747 186.074L15.4968 189.313L22.9025 167.963L13.5632 164.724L6.15747 186.074Z" fill="white" stroke="#263238" stroke-miterlimit="10"/>
<path d="M10.6985 176.94L17.592 179.332L21.6799 167.546L14.7864 165.155L10.6985 176.94Z" fill="#263238" stroke="#263238" stroke-miterlimit="10"/>
<path d="M9.47936 185.484L13.2573 186.794L17.3452 175.009L13.5673 173.699L9.47936 185.484Z" fill="#263238" stroke="#263238" stroke-miterlimit="10"/>
<path d="M5.4982 185.85L16.1697 189.551L17.0963 186.88L6.42486 183.178L5.4982 185.85Z" fill="white" stroke="#263238" stroke-miterlimit="10"/>
<path d="M15.8407 164.279L21.4021 166.208L22.6368 162.648L17.0754 160.719L15.8407 164.279Z" fill="white" stroke="#263238" stroke-miterlimit="10"/>
<path d="M12.6703 165.165L23.3418 168.867L24.2685 166.195L13.597 162.494L12.6703 165.165Z" fill="white" stroke="#263238" stroke-miterlimit="10"/>
<path d="M19.9126 161.2L24.3814 148.302" stroke="#263238" stroke-miterlimit="10"/>
<path d="M268.377 321.498C290.644 321.498 308.696 317.428 308.696 312.407C308.696 307.385 290.644 303.315 268.377 303.315C246.109 303.315 228.058 307.385 228.058 312.407C228.058 317.428 246.109 321.498 268.377 321.498Z" fill="#263238" stroke="#263238" stroke-linecap="round" stroke-linejoin="round"/>
<path d="M237.288 106.904C237.288 106.904 231.833 110.24 231.895 111.704C231.956 113.168 229.86 139.865 229.622 143.202C229.383 146.538 226.208 153.426 225.962 156.554C225.715 159.682 226.501 162.818 227.418 164.259C228.335 165.7 231.702 170.307 231.702 170.307L240.755 156.323C240.977 153.269 241.023 150.205 240.894 147.146C240.755 140.482 237.288 106.904 237.288 106.904Z" fill="white" stroke="#263238" stroke-linecap="round" stroke-linejoin="round"/>
<path d="M272.121 40.7509C272.121 40.7509 262.49 40.1346 257.004 46.8146C251.519 53.4947 252.697 63.7112 252.659 66.8471C252.62 69.9829 243.305 79.1747 244.338 82.9193C245.37 86.6638 248.113 87.0876 247.235 90.2157C246.356 93.3439 240.624 95.2238 241.456 99.1918C242.288 103.16 245.308 108.784 245.308 108.784L300.783 109.162C300.783 109.162 302.763 103.322 300.652 98.9375C298.541 94.5535 295.544 93.105 296.029 91.017C296.515 88.929 299.196 83.9209 298.163 80.1687C297.131 76.4164 293.54 75.3763 293.163 68.6962C292.785 62.0162 291.799 50.9752 286.498 45.5818C281.197 40.1885 272.121 40.7509 272.121 40.7509Z" fill="#263238" stroke="#263238" stroke-linecap="round" stroke-linejoin="round"/>
<path d="M255.063 298.176C253.359 301.459 251.292 304.539 248.899 307.36C245.355 311.328 241.919 313.416 242.034 315.504C242.15 317.592 249.885 318 253.977 316.536C258.068 315.072 261.042 312.152 261.866 311.913C262.691 311.675 264.994 311.913 265.048 308.986C265.102 306.058 264.655 297.721 264.655 297.721L255.063 298.176Z" fill="white" stroke="#263238" stroke-linecap="round" stroke-linejoin="round"/>
<path d="M253.961 316.536C258.06 315.072 261.027 312.152 261.851 311.913C262.675 311.675 264.979 311.913 265.033 308.986C265.033 307.445 264.948 304.363 264.84 301.843C264.234 302.98 263.337 303.936 262.24 304.613C261.144 305.289 259.888 305.663 258.6 305.696C258.6 305.696 258.522 304.232 256.288 301.735C254.847 300.102 253.391 301.389 252.544 302.506L251.858 303.538L251.804 303.638C250.915 304.95 249.942 306.204 248.891 307.391C245.347 311.359 241.911 313.447 242.027 315.535C242.142 317.623 249.87 318 253.961 316.536Z" fill="white" stroke="#263238" stroke-linecap="round" stroke-linejoin="round"/>
<path d="M283.609 298.16C285.68 301.455 288.08 304.53 290.775 307.337C294.743 311.297 298.402 313.377 298.479 315.465C298.556 317.553 290.898 317.969 286.645 316.513C282.392 315.057 279.11 312.137 278.27 311.929C277.43 311.721 275.134 311.929 274.772 309.016C274.41 306.104 273.955 297.752 273.955 297.752L283.609 298.16Z" fill="white" stroke="#263238" stroke-linecap="round" stroke-linejoin="round"/>
<path d="M286.675 316.513C282.43 315.057 279.14 312.137 278.3 311.929C277.46 311.721 275.164 311.929 274.802 309.016C274.61 307.475 274.394 304.394 274.232 301.866C274.945 302.996 275.924 303.934 277.083 304.598C278.242 305.261 279.546 305.63 280.881 305.673C280.881 305.673 280.804 304.209 282.754 301.705C284.025 300.079 285.62 301.358 286.606 302.475C286.86 302.814 287.122 303.153 287.377 303.508L287.446 303.608C288.481 304.918 289.587 306.17 290.759 307.36C294.727 311.32 298.387 313.4 298.464 315.488C298.541 317.576 290.928 317.969 286.675 316.513Z" fill="white" stroke="#263238" stroke-linecap="round" stroke-linejoin="round"/>
<path d="M238.305 188.051C238.305 188.051 239.592 231.437 241.302 239.989C243.013 248.541 250.648 297.559 250.648 297.559C252.982 298.547 255.495 299.04 258.029 299.008H266.373L267.144 262.503L267.429 209.517L271.613 299.208C271.613 299.208 283.108 299.617 284.349 299.409C285.589 299.2 286.622 298.992 286.622 298.992L294.011 242.247L298.241 204.493L298.472 189.477C298.472 189.477 263.153 188.251 252.89 187.419C242.627 186.587 238.405 186.379 238.405 186.379L238.305 188.051Z" fill="#0061AC" stroke="#263238" stroke-linecap="round" stroke-linejoin="round"/>
<path d="M285.998 264.652C285.905 265.376 285.813 266.047 285.705 266.663" stroke="#263238" stroke-linecap="round" stroke-linejoin="round"/>
<path d="M286.945 212.421C286.945 212.421 287.662 243.333 286.406 260.114" stroke="#263238" stroke-linecap="round" stroke-linejoin="round"/>
<path d="M249.076 209.941C249.076 209.941 249.962 230.389 250.841 234.973" stroke="#263238" stroke-linecap="round" stroke-linejoin="round"/>
<path d="M281.999 196.912V212.522C283.999 213.06 286.044 213.413 288.109 213.577C291.276 213.785 297.185 213.577 297.185 213.577L297.609 207.668L281.999 196.912Z" fill="#263238" stroke="#263238" stroke-linecap="round" stroke-linejoin="round"/>
<path d="M238.96 208.931C238.96 208.931 246.98 211.466 250.355 211.674C253.73 211.882 256.889 212.306 256.889 212.306L256.473 208.091L238.536 206.404L238.96 208.931Z" fill="#263238" stroke="#263238" stroke-linecap="round" stroke-linejoin="round"/>
<path d="M263.307 90.4083L257.012 97.5044L239.553 110.24L243.275 187.435C243.275 187.435 257.19 191.179 269.132 192.219C281.074 193.26 296.43 190.524 296.43 190.524L294.173 109.624C294.173 109.624 287.377 99.6078 283.894 96.9035C280.412 94.1991 278.817 91.695 274.202 91.279C269.587 90.8629 263.307 90.4083 263.307 90.4083Z" fill="#0061AC" stroke="#263238" stroke-linecap="round" stroke-linejoin="round"/>
<path d="M256.003 94.2067L237.288 106.943L240.224 153.873L239.23 158.588L231.363 167.649L234.715 183.567L233.22 206.026C233.22 206.026 240.655 208.53 245.694 209.147C249.446 209.549 253.216 209.757 256.989 209.771L257.636 179.106C257.636 179.106 260.125 128.2 260.418 125.943C260.711 123.685 263.307 90.5007 263.307 90.5007L256.003 94.2067Z" fill="white" stroke="#263238" stroke-linecap="round" stroke-linejoin="round"/>
<path d="M256.304 96.1253L247.243 118.847L257.02 122.907L247.79 124.587L255.965 156.616" stroke="#263238" stroke-linecap="round" stroke-linejoin="round"/>
<path d="M261.735 84.36C261.735 84.36 264.987 106.049 267.545 111.057C270.103 116.065 270.827 117.729 270.827 117.729C270.827 117.729 276.39 100.825 277.507 98.3211C278.624 95.817 279.818 86.8486 279.818 86.8486C279.818 86.8486 268.731 90.4005 261.735 84.36Z" fill="white" stroke="#263238" stroke-linecap="round" stroke-linejoin="round"/>
<path d="M261.735 84.36C261.735 84.36 262.028 86.3324 262.506 89.2217C264.131 90.4622 268.438 93.5287 271.62 93.6905C274.047 93.8138 277.129 92.242 279.179 90.9861C279.549 88.7132 279.803 86.8486 279.803 86.8486C279.803 86.8486 268.731 90.4005 261.735 84.36Z" fill="#263238" stroke="#263238" stroke-linecap="round" stroke-linejoin="round"/>
<path d="M257.32 69.3665C257.32 69.3665 255.101 66.2075 253.607 69.3665C252.112 72.5255 255.918 77.2023 256.981 77.8418C260.002 79.637 259.2 76.3008 259.2 76.3008L257.32 69.3665Z" fill="white" stroke="#263238" stroke-linecap="round" stroke-linejoin="round"/>
<path d="M284.881 70.7303C284.881 70.7303 286.753 67.4635 288.587 70.5454C290.42 73.6273 287.115 78.4736 286.129 79.1593C283.309 81.1087 283.756 77.7648 283.756 77.7648L284.881 70.7303Z" fill="white" stroke="#263238" stroke-linecap="round" stroke-linejoin="round"/>
<path d="M256.796 66.5774C256.796 66.5774 264.84 64.6974 268.893 62.3012C271.375 60.802 273.54 58.8309 275.265 56.4995C275.265 56.4995 278.747 63.0794 281.814 65.7453C284.88 68.4111 285.52 68.5652 285.52 68.5652C285.52 68.5652 284.048 80.0839 282.384 84.0904C280.72 88.0969 275.288 91.9955 270.218 90.8706C267.337 90.2388 262.344 88.1585 260.895 84.6528C259.447 81.1472 256.796 66.5774 256.796 66.5774Z" fill="white" stroke="#263238" stroke-linecap="round" stroke-linejoin="round"/>
<path d="M277.322 75.4302C274.826 75.4918 266.466 75.5072 262.151 72.903C260.422 71.8962 258.803 70.7109 257.32 69.3665C257.474 70.137 257.659 71.1001 257.86 72.1017L258.8 72.7874L261.157 81.6942L260.056 81.933C260.288 82.8435 260.568 83.7411 260.895 84.622C262.344 88.1277 267.337 90.208 270.218 90.8398C275.28 91.957 280.697 88.0815 282.376 84.0827C281.98 83.3058 281.863 82.4162 282.045 81.5632C282.53 79.0437 283.131 74.6289 283.131 74.6289L284.85 73.0879C284.942 72.5255 285.019 71.9862 285.096 71.493C283.016 72.9338 279.117 75.384 277.322 75.4302Z" fill="#0061AC" stroke="#263238" stroke-linecap="round" stroke-linejoin="round"/>
<path d="M268.146 71.7088C268.146 71.7088 265.457 68.442 261.928 68.7425" stroke="#263238" stroke-linecap="round" stroke-linejoin="round"/>
<path d="M275.072 72.356C275.93 71.4539 276.996 70.7758 278.177 70.3809C279.357 69.986 280.617 69.8864 281.845 70.0908" stroke="#263238" stroke-linecap="round" stroke-linejoin="round"/>
<path d="M260.379 67.109C260.379 67.109 264.232 65.5681 267.645 66.2923" stroke="#263238" stroke-linecap="round" stroke-linejoin="round"/>
<path d="M275.388 67.1321C276.403 66.6135 277.553 66.4197 278.682 66.5768C279.811 66.7339 280.864 67.2344 281.698 68.0105" stroke="#263238" stroke-linecap="round" stroke-linejoin="round"/>
<path d="M265.557 70.6378C265.574 70.7562 265.568 70.8769 265.539 70.9929C265.509 71.109 265.458 71.2181 265.386 71.314C265.314 71.4099 265.225 71.4908 265.122 71.5519C265.019 71.613 264.905 71.6532 264.786 71.6702C264.545 71.6431 264.324 71.5253 264.166 71.3407C264.009 71.1561 263.927 70.9186 263.939 70.6763C263.92 70.5578 263.926 70.4367 263.954 70.3203C263.983 70.2038 264.035 70.0943 264.107 69.9981C264.179 69.902 264.269 69.8211 264.372 69.7603C264.476 69.6994 264.59 69.6599 264.709 69.6439C264.95 69.6727 265.17 69.791 265.327 69.9752C265.484 70.1594 265.566 70.3959 265.557 70.6378Z" fill="#263238"/>
<path d="M279.51 71.6395C279.531 71.7583 279.527 71.8801 279.499 71.9974C279.471 72.1147 279.42 72.2251 279.348 72.3217C279.275 72.4184 279.184 72.4993 279.08 72.5595C278.975 72.6197 278.86 72.658 278.74 72.6719C278.499 72.6466 278.278 72.5304 278.12 72.3471C277.963 72.1638 277.881 71.9272 277.892 71.6857C277.872 71.5669 277.875 71.4451 277.903 71.3278C277.931 71.2105 277.983 71.1001 278.055 71.0035C278.127 70.9068 278.218 70.8259 278.323 70.7657C278.427 70.7054 278.543 70.6672 278.663 70.6533C278.903 70.6785 279.125 70.7948 279.282 70.9781C279.44 71.1614 279.522 71.398 279.51 71.6395Z" fill="#263238"/>
<path d="M300.259 102.482C300.259 102.482 304.751 104.562 306.423 107.875C308.095 111.188 321.463 147.085 321.401 149.797C321.34 152.509 316.917 155.637 312.772 156.061C308.627 156.485 302.586 148.972 301.685 147.724C300.783 146.476 300.621 131.868 300.621 131.868L300.259 102.482Z" fill="white" stroke="#263238" stroke-linecap="round" stroke-linejoin="round"/>
<path d="M279.086 92.897L281.275 164.659L282.045 209.925C286.24 210.957 290.538 211.512 294.858 211.582C298.461 211.657 302.044 211.018 305.398 209.702C305.398 209.702 304.088 181.541 303.857 176.949C303.626 172.357 302.101 163.596 302.101 163.596L300.282 102.482C300.282 102.482 283.355 94.5612 279.086 92.897Z" fill="white" stroke="#263238" stroke-linecap="round" stroke-linejoin="round"/>
<path d="M283.894 96.8572L291.653 122.167L284.58 124.086L291.46 127.422L282.877 154.689" fill="white"/>
<path d="M283.894 96.8572L291.653 122.167L284.58 124.086L291.46 127.422L282.877 154.689" stroke="#263238" stroke-linecap="round" stroke-linejoin="round"/>
<path d="M289.303 120.01L279.68 166.116C279.68 166.116 286.26 168.196 291.068 168.427C295.875 168.658 305.892 168.627 305.892 168.627L315.908 125.65C315.908 125.65 296.191 123.762 289.303 120.01Z" fill="#263238" stroke="#263238" stroke-linecap="round" stroke-linejoin="round"/>
<path d="M292.655 162.98L292.971 148.572L300.606 150.182C300.606 150.182 295.559 161.3 292.655 162.98Z" fill="white" stroke="#263238" stroke-linecap="round" stroke-linejoin="round"/>
<path d="M298.502 143.363C298.502 143.363 296.468 140.451 295.813 139.819C295.159 139.187 291.923 137.323 291.298 137.323C290.674 137.323 287.323 137.115 286.676 137.115C286.028 137.115 285.296 138.579 285.959 139.203C286.622 139.827 288.925 140.035 288.925 140.035L290.505 142.346L283.378 141.722C283.378 141.722 282.191 142.978 282.461 144.034C282.663 144.749 282.92 145.447 283.231 146.122C283.204 147.653 283.284 149.185 283.47 150.706C283.748 151.962 285.011 152.378 286.745 153.418C288.478 154.458 294.28 153.834 294.28 153.834H296.961L298.502 143.363Z" fill="white" stroke="#263238" stroke-linecap="round" stroke-linejoin="round"/>
<path d="M315.877 144.812L297.386 142.323C297.386 142.323 295.945 154.219 294.489 158.18C293.032 162.14 292.655 162.98 292.655 162.98C292.655 162.98 312.032 162.548 316.601 162.132C321.17 161.716 323.736 158.996 323.536 155.244C323.335 151.492 321.047 147.732 321.047 147.732" fill="white"/>
<path d="M315.877 144.812L297.386 142.323C297.386 142.323 295.945 154.219 294.489 158.18C293.032 162.14 292.655 162.98 292.655 162.98C292.655 162.98 312.032 162.548 316.601 162.132C321.17 161.716 323.736 158.996 323.536 155.244C323.335 151.492 321.047 147.732 321.047 147.732" stroke="#263238" stroke-linecap="round" stroke-linejoin="round"/>
<path d="M238.767 157.802C238.767 157.802 243.082 160.507 244.161 161.346C245.239 162.186 245.332 167.603 246.017 168.643C246.703 169.683 245.894 170.315 244.646 170.315C243.398 170.315 241.51 166.355 241.51 166.355L241.433 164.891L232.619 167.818L230.307 163.858C230.307 163.858 232.927 157.802 238.767 157.802Z" fill="white" stroke="#263238" stroke-linecap="round" stroke-linejoin="round"/>
<path d="M174.556 321.498C196.823 321.498 214.875 317.428 214.875 312.407C214.875 307.385 196.823 303.315 174.556 303.315C152.288 303.315 134.236 307.385 134.236 312.407C134.236 317.428 152.288 321.498 174.556 321.498Z" fill="#263238" stroke="#263238" stroke-linecap="round" stroke-linejoin="round"/>
<path d="M206.045 96.3563C206.045 96.3563 211.331 122.884 212.271 127.792C213.21 132.7 214.936 144.365 216.893 149.481C218.85 154.597 218.211 161.146 217.232 162.987C216.251 164.588 215.124 166.094 213.865 167.487L207.301 158.927C207.301 158.927 203.395 116.982 203.248 111.042C203.102 105.101 206.045 96.3563 206.045 96.3563Z" fill="white" stroke="#263238" stroke-linecap="round" stroke-linejoin="round"/>
<path d="M209.528 157.879C209.528 157.879 213.688 160.476 214.42 161.577C215.152 162.679 215.676 164.082 215.106 165.276C214.536 166.47 211.431 170.076 210.645 170.777C209.859 171.478 209.196 168.681 209.104 166.277C209.011 163.873 209.528 157.879 209.528 157.879Z" fill="white" stroke="#263238" stroke-linecap="round" stroke-linejoin="round"/>
<path d="M187.153 303.346C187.153 303.346 200.197 309.687 201.022 310.919C201.846 312.152 198.872 313.793 191.098 313.793C183.324 313.793 183.093 312.769 180.003 311.952C176.913 311.135 170.757 311.744 169.925 309.902C169.093 308.061 170.541 301.72 170.541 301.72L187.153 303.346Z" fill="white" stroke="#263238" stroke-linecap="round" stroke-linejoin="round"/>
<path d="M169.833 306.62C169.833 306.62 180.619 313.169 179.672 315.419C178.724 317.669 170.927 317.669 166.82 317.052C162.713 316.436 153.984 310.889 153.521 308.87C153.059 306.851 154.215 303.754 160.541 303.145C166.866 302.537 169.833 306.62 169.833 306.62Z" fill="white" stroke="#263238" stroke-linecap="round" stroke-linejoin="round"/>
<path d="M202.578 199.608C202.578 199.608 196.414 247.077 195.343 254.035C194.272 260.992 190.874 272.041 189.041 280.432C188.001 285.366 187.23 290.353 186.729 295.371C186.542 296.798 186.576 298.246 186.829 299.663C187.091 301.712 187.13 303.346 187.13 303.346C184.386 304.034 181.594 304.513 178.778 304.779C175.303 304.987 170.595 304.987 170.595 304.987L169.054 291.688C169.054 291.688 170.202 272.041 170.88 266.316C171.558 260.592 172.283 215.573 172.252 214.34C172.221 213.107 171.951 202.266 171.951 202.266L192.947 200.017C192.947 200.017 195.813 191.834 200.12 192.242C204.427 192.651 202.578 199.608 202.578 199.608Z" fill="white" stroke="#263238" stroke-linecap="round" stroke-linejoin="round"/>
<path d="M200.151 192.242C195.844 191.834 192.978 200.017 192.978 200.017L171.959 202.266C171.959 202.266 172.029 205.148 172.098 208.107C174.34 208.307 176.413 208.423 178.185 208.423C184.919 208.412 191.647 208.033 198.34 207.29L199.242 197.859L200.652 207.467L201.623 207.151C202.224 202.575 202.609 199.593 202.609 199.593C202.609 199.593 204.458 192.651 200.151 192.242Z" fill="#263238" stroke="#263238" stroke-linecap="round" stroke-linejoin="round"/>
<path d="M150.031 201.041C150.031 201.041 150.031 201.334 150.077 201.866C150.362 207.459 152.057 239.874 152.574 245.852C153.151 252.402 150.262 259.559 150.409 265.492C150.555 271.425 151.949 303.554 151.949 303.554L153.49 308.87C153.49 308.87 157.112 306.42 160.587 306.42C164.061 306.42 169.832 306.62 169.832 306.62C169.832 306.62 170.133 302.321 170.102 300.896C170.071 299.47 169.94 294.346 169.94 294.346C169.94 294.346 175.819 267.541 176.173 265.292C176.528 263.042 181.089 224.163 181.058 222.915C181.027 221.667 182.021 204.293 182.021 204.293L150.031 201.041Z" fill="white" stroke="#263238" stroke-linecap="round" stroke-linejoin="round"/>
<path d="M181.806 208.384C181.937 206.011 182.029 204.316 182.029 204.316L150.031 201.041C150.031 201.041 150.031 201.334 150.077 201.866C150.077 202.544 150.162 203.615 150.239 204.948C157.72 206.288 170.703 208.399 178.184 208.399C179.417 208.423 180.619 208.407 181.806 208.384Z" fill="#263238" stroke="#263238" stroke-linecap="round" stroke-linejoin="round"/>
<path d="M173.608 75.407C173.608 75.407 170.225 75.9771 168.939 77.4873C167.649 78.9562 166.489 80.5338 165.472 82.2026C165.294 82.7728 145.401 94.8462 145.401 94.8462L146.834 152.416C146.834 152.416 147.427 161.285 146.371 164.305C144.588 170.243 143.723 176.419 143.806 182.619C143.991 189.977 144.468 201.881 144.468 201.881C144.468 201.881 167.236 206.412 178.184 206.412C184.919 206.396 191.647 206.012 198.34 205.264L199.242 195.825L200.613 205.456L205.29 203.915L209.142 175.408C209.142 175.408 211.824 169.367 211.793 168.042C211.762 166.716 212.471 165.021 211.693 163.889C210.914 162.756 209.528 160.491 209.528 160.491C209.528 160.491 206.045 98.0591 206.045 96.3563C206.045 94.6536 195.744 84.6604 194.981 84.2829C194.218 83.9054 189.518 76.9171 183.424 75.0372C177.329 73.1572 173.608 75.407 173.608 75.407Z" fill="white" stroke="#263238" stroke-linecap="round" stroke-linejoin="round"/>
<path d="M167.405 84.0903L165.125 104.824L174.494 109.177L172.152 116.212L195.582 157.386" stroke="#263238" stroke-linecap="round" stroke-linejoin="round"/>
<path d="M193.579 86.4172L200.605 102.821L197.593 106.835L202.616 113.862L200.605 159.058" stroke="#263238" stroke-linecap="round" stroke-linejoin="round"/>
<path d="M172.737 78.2423C172.908 82.2872 173.642 86.2886 174.918 90.1308C176.944 95.7939 190.374 134.865 190.374 134.865L199.057 165.438C199.057 165.438 197.909 134.295 197.878 132.977C197.847 131.66 191.298 88.4281 191.298 88.4281C191.298 88.4281 190.181 81.4475 188.417 78.8048C186.652 76.162 174.825 71.2541 172.737 78.2423Z" fill="#0061AC" stroke="#263238" stroke-linecap="round" stroke-linejoin="round"/>
<path d="M171.905 75.2221C171.905 75.2221 166.443 75.7846 167.406 84.0903C168.369 92.3961 169.64 98.0591 169.64 98.0591" stroke="#263238" stroke-width="2" stroke-linecap="round" stroke-linejoin="round"/>
<path d="M168.97 109.008C168.97 109.008 171.281 118.631 172.861 121.274C174.44 123.916 179.217 126.559 182.615 126.559" stroke="#263238" stroke-linecap="round" stroke-linejoin="round"/>
<path d="M176.274 106.742C176.274 106.742 178.816 117.876 179.24 119.956C179.664 122.036 178.262 125.989 175.904 129.972" stroke="#263238" stroke-linecap="round" stroke-linejoin="round"/>
<path d="M175.226 131.29C174.983 131.156 174.803 130.932 174.726 130.667C174.648 130.401 174.678 130.115 174.81 129.872L175.08 129.379C175.146 129.261 175.235 129.158 175.342 129.075C175.449 128.992 175.571 128.931 175.701 128.896C175.832 128.861 175.968 128.852 176.102 128.87C176.236 128.888 176.365 128.933 176.482 129.002C176.724 129.135 176.904 129.359 176.984 129.624C177.063 129.889 177.035 130.175 176.906 130.419L176.636 130.905C176.569 131.023 176.48 131.128 176.373 131.211C176.266 131.295 176.143 131.357 176.012 131.393C175.88 131.429 175.743 131.438 175.608 131.42C175.474 131.403 175.343 131.358 175.226 131.29Z" fill="#263238"/>
<path d="M183.878 126.767C183.878 126.903 183.851 127.038 183.798 127.163C183.745 127.288 183.667 127.401 183.569 127.495C183.471 127.589 183.356 127.663 183.229 127.711C183.102 127.759 182.966 127.782 182.831 127.777H182.268C181.991 127.77 181.727 127.656 181.534 127.457C181.341 127.258 181.234 126.991 181.236 126.713C181.234 126.578 181.261 126.443 181.313 126.318C181.365 126.193 181.442 126.08 181.54 125.986C181.637 125.892 181.752 125.818 181.879 125.769C182.005 125.721 182.14 125.699 182.276 125.704H182.838C183.116 125.712 183.379 125.827 183.573 126.026C183.767 126.224 183.877 126.49 183.878 126.767Z" fill="#263238"/>
<path d="M168.985 109.763L167.691 101.557C167.546 100.711 167.73 99.8417 168.203 99.126C168.677 98.4103 169.406 97.902 170.241 97.7046V97.7046C171.141 97.4999 172.085 97.6521 172.876 98.1291C173.666 98.6061 174.241 99.3708 174.479 100.263L176.69 108.43" stroke="#263238" stroke-width="2" stroke-linecap="round" stroke-linejoin="round"/>
<path d="M199.441 115.308C201.296 115.123 202.625 113.239 202.411 111.1C202.197 108.962 200.52 107.38 198.666 107.565C196.811 107.751 195.481 109.635 195.695 111.773C195.91 113.911 197.587 115.494 199.441 115.308Z" fill="white" stroke="#263238" stroke-linecap="round" stroke-linejoin="round"/>
<path d="M189.965 78.6816C189.965 78.6816 197.385 89.1216 199.75 110.402" stroke="#263238" stroke-width="2" stroke-linecap="round" stroke-linejoin="round"/>
<path d="M199.947 112.866C200.96 112.772 201.692 111.737 201.582 110.555C201.472 109.373 200.562 108.491 199.55 108.585C198.537 108.679 197.805 109.714 197.915 110.896C198.025 112.078 198.935 112.96 199.947 112.866Z" fill="white" stroke="#263238" stroke-linecap="round" stroke-linejoin="round"/>
<path d="M210.791 159.505C210.336 160.915 209.963 162.351 209.674 163.804C209.674 164.421 209.528 166.262 208.087 165.846C206.646 165.43 207.078 158.072 207.263 157.255C207.447 156.438 210.953 159.081 210.953 159.081" fill="white"/>
<path d="M210.791 159.505C210.336 160.915 209.963 162.351 209.674 163.804C209.674 164.421 209.528 166.262 208.087 165.846C206.646 165.43 207.078 158.072 207.263 157.255C207.447 156.438 210.953 159.081 210.953 159.081" stroke="#263238" stroke-linecap="round" stroke-linejoin="round"/>
<path d="M164.023 152.987C165.305 153.692 166.737 154.08 168.199 154.119C170.464 154.119 174.602 153.349 176.12 153.742C177.638 154.135 181.513 159.019 181.513 159.019C181.513 159.019 182.669 160.152 182.122 160.722C181.575 161.292 180.458 162.263 179.687 161.662C178.917 161.061 175.064 157.887 175.064 157.887L165.348 161.855L161.357 159.774L164.023 152.987Z" fill="white" stroke="#263238" stroke-linecap="round" stroke-linejoin="round"/>
<path d="M149.145 93.5287C149.145 93.5287 142.743 94.2992 141.656 95.9788C140.57 97.6585 123.026 136.182 123.065 137.885C123.103 139.588 158.144 167.163 158.144 167.163L165.711 152.763L146.78 135.212L154.993 116.15" fill="white"/>
<path d="M149.145 93.5287C149.145 93.5287 142.743 94.2992 141.656 95.9788C140.57 97.6585 123.026 136.182 123.065 137.885C123.103 139.588 158.144 167.163 158.144 167.163L165.711 152.763L146.78 135.212L154.993 116.15" stroke="#263238" stroke-linecap="round" stroke-linejoin="round"/>
<path d="M160.957 174.121L179.464 174.498L179.371 162.987" stroke="#263238" stroke-linecap="round" stroke-linejoin="round"/>
<path d="M165.372 161.855L160.479 163.681" stroke="#263238" stroke-linecap="round" stroke-linejoin="round"/>
<path d="M170.95 67.1013C170.95 67.1013 173.053 83.5279 174.44 85.978C175.827 88.4281 185.689 98.2441 185.689 98.2441C185.689 98.2441 188.771 86.9257 189.118 84.283C189.464 81.6402 189.734 71.0692 189.734 71.0692L170.911 65.7838L170.95 67.1013Z" fill="white" stroke="#263238" stroke-linecap="round" stroke-linejoin="round"/>
<path d="M170.95 67.1013C170.95 67.1013 171.196 69.0275 171.574 71.6548C173.049 73.0286 174.735 74.1575 176.566 74.9987C178.993 76.0697 185.465 76.6706 189.557 76.1929C189.665 73.4269 189.734 71.0692 189.734 71.0692L170.911 65.7838L170.95 67.1013Z" fill="#263238" stroke="#263238" stroke-linecap="round" stroke-linejoin="round"/>
<path d="M165.495 52.7626C165.495 52.7626 162.975 50.1198 161.727 53.1324C160.479 56.145 163.268 60.6831 164.755 60.8757C165.638 60.9908 166.534 60.9252 167.39 60.6831C167.39 60.6831 168.446 65.0286 169.417 66.3461C171.327 68.7621 173.776 70.6986 176.567 72.0014C180.003 73.5424 191.506 74.0894 192.963 72.0014C194.419 69.9134 194.334 58.7877 194.311 57.8477C194.288 56.9077 194.126 43.4552 194.126 43.4552C194.126 43.4552 195.158 38.7861 193.756 35.5732C192.354 32.3603 178.277 27.8684 174.741 29.7252C171.204 31.5821 167.128 34.8181 166.851 38.971C166.574 43.1239 166.743 49.9195 166.743 49.9195L165.495 52.7626Z" fill="white" stroke="#263238" stroke-linecap="round" stroke-linejoin="round"/>
<path d="M186.298 46.9069C186.298 46.9069 188.648 57.6936 188.109 58.988C187.569 60.2824 185.882 60.3056 183.771 59.173C181.66 58.0403 182.761 56.5302 182.761 56.5302" stroke="#263238" stroke-linecap="round" stroke-linejoin="round"/>
<path d="M178.115 59.3657C178.115 59.3657 179.132 62.1933 181.02 62.3859C182.908 62.5786 187.646 62.9484 187.646 62.9484" stroke="#263238" stroke-linecap="round" stroke-linejoin="round"/>
<path d="M171.374 47.2846L171.674 51.815C171.674 51.815 173.4 52.7627 177.36 52.7627C181.32 52.7627 182.623 51.815 182.623 51.815L182.515 47.2846C182.515 47.2846 176.767 43.8867 171.374 47.2846Z" stroke="#263238" stroke-linecap="round" stroke-linejoin="round"/>
<path d="M186.313 47.2845L187.746 52.0076C187.746 52.0076 188.332 52.7781 192.3 52.7781C196.268 52.7781 197.57 51.8304 197.57 51.8304L197.454 47.2999C197.454 47.2999 191.699 43.8867 186.313 47.2845Z" stroke="#263238" stroke-linecap="round" stroke-linejoin="round"/>
<path d="M182.538 47.2845H186.313" stroke="#263238" stroke-linecap="round" stroke-linejoin="round"/>
<path d="M171.397 47.2845L163.954 51.63" stroke="#263238" stroke-linecap="round" stroke-linejoin="round"/>
<path d="M173.23 45.0193C173.23 45.0193 175.249 42.754 179.826 44.6417" stroke="#263238" stroke-linecap="round" stroke-linejoin="round"/>
<path d="M187.007 45.0193C187.686 44.474 188.506 44.1319 189.372 44.0324C190.237 43.9329 191.114 44.08 191.899 44.4569" stroke="#263238" stroke-linecap="round" stroke-linejoin="round"/>
<path d="M178.054 49.3648C178.054 50.1969 177.753 50.9058 177.337 50.9058C176.921 50.9058 176.567 50.2277 176.567 49.3648C176.567 48.5019 176.867 47.8239 177.291 47.8239C177.715 47.8239 178.038 48.525 178.054 49.3648Z" fill="#263238"/>
<path d="M190.135 49.1722C190.135 50.0044 189.834 50.7132 189.418 50.7132C189.002 50.7132 188.648 50.0352 188.648 49.1722C188.648 48.3093 188.948 47.6313 189.364 47.6313C189.78 47.6313 190.112 48.3401 190.135 49.1722Z" fill="#263238"/>
<path d="M177.206 31.7132C177.206 31.7132 179.024 35.7274 176.767 37.1913C176.07 37.5944 175.28 37.8067 174.475 37.8067C173.67 37.8067 172.879 37.5944 172.183 37.1913C172.783 38.0203 173.118 39.0116 173.144 40.0348C173.17 41.058 172.886 42.0651 172.329 42.9237C171.222 44.7676 169.932 46.4946 168.477 48.0782C168.477 48.0782 168.885 52.9553 168.037 53.5255C167.19 54.0956 164.878 53.2404 164.84 51.8073C164.801 50.3742 163.877 47.508 163.838 46.0749C163.8 44.6418 163.137 40.9127 163.137 40.9127C163.137 40.9127 157.343 38.3316 160.417 35.1803C163.492 32.0291 170.018 29.448 170.018 29.448C170.018 29.448 170.164 23.7156 174.132 21.9974C178.1 20.2793 186.637 17.6982 186.706 20.5643C186.815 22.0394 186.55 23.5181 185.936 24.8636C185.936 24.8636 193.093 24.5785 198.086 29.4865C203.079 34.3945 202.909 38.948 200.328 38.948C197.747 38.948 196.907 39.5181 196.907 39.5181C196.907 39.5181 201.846 42.3843 199.303 43.8174C196.761 45.2505 194.141 43.5323 194.141 43.5323C194.141 43.5323 195.235 41.5291 192.015 38.9095C188.794 36.2898 177.206 31.7132 177.206 31.7132Z" fill="#263238" stroke="#263238" stroke-linecap="round" stroke-linejoin="round"/>
<path d="M79.44 321.498C101.708 321.498 119.759 317.428 119.759 312.407C119.759 307.385 101.708 303.315 79.44 303.315C57.1724 303.315 39.1208 307.385 39.1208 312.407C39.1208 317.428 57.1724 321.498 79.44 321.498Z" fill="#263238" stroke="#263238" stroke-linecap="round" stroke-linejoin="round"/>
<path d="M105.99 124.356V131.721L116.7 136.629C116.7 136.629 117.817 131.721 116.924 123.015L105.99 124.356Z" fill="#999999" stroke="#263238" stroke-linecap="round" stroke-linejoin="round"/>
<path d="M52.8351 301.111C50.3838 303.215 48.0678 305.472 45.9008 307.868C42.8189 311.343 42.2179 314.803 45.0841 316.459C47.9503 318.116 52.4499 317.684 57.3579 314.618C62.2658 311.551 62.0655 310.318 64.9317 309.301C67.7979 308.284 69.6393 306.219 69.6393 302.953C69.6393 299.686 59.1993 299.27 56.9495 299.1C54.6997 298.931 52.8351 301.111 52.8351 301.111Z" fill="white" stroke="#263238" stroke-linecap="round" stroke-linejoin="round"/>
<path d="M69.6161 302.953C69.6161 302.953 64.9932 305.002 62.7511 306.867C60.509 308.731 56.0403 315.442 50.8164 315.442C48.1562 315.445 45.5401 314.763 43.2195 313.462C43.2229 314.082 43.3964 314.69 43.7211 315.218C44.0457 315.747 44.5092 316.176 45.0609 316.459C47.9271 318.093 52.4267 317.684 57.3347 314.618C62.2426 311.551 62.0423 310.318 64.9085 309.301C67.7747 308.284 69.6161 306.227 69.6161 302.953Z" stroke="#263238" stroke-linecap="round" stroke-linejoin="round"/>
<path d="M104.758 301.111C107.209 303.215 109.525 305.472 111.692 307.868C114.774 311.343 115.375 314.803 112.509 316.459C109.643 318.116 105.143 317.684 100.235 314.618C95.3271 311.551 95.5274 310.318 92.6612 309.301C89.7951 308.284 87.9536 306.219 87.9536 302.953C87.9536 299.686 98.3936 299.27 100.643 299.1C102.893 298.931 104.758 301.111 104.758 301.111Z" fill="white" stroke="#263238" stroke-linecap="round" stroke-linejoin="round"/>
<path d="M87.9768 302.953C87.9768 302.953 92.5997 305.002 94.8418 306.867C97.0839 308.731 101.553 315.442 106.777 315.442C109.437 315.445 112.053 314.763 114.373 313.462C114.37 314.082 114.197 314.69 113.872 315.218C113.547 315.747 113.084 316.176 112.532 316.459C109.666 318.093 105.166 317.684 100.258 314.618C95.3503 311.551 95.5506 310.318 92.6844 309.301C89.8183 308.284 87.9768 306.227 87.9768 302.953Z" stroke="#263238" stroke-linecap="round" stroke-linejoin="round"/>
<path d="M46.9026 184.892C46.9026 184.892 48.1276 230.928 48.744 237.685C49.3604 244.443 51.1788 259.783 51.1788 260.63C51.1788 261.478 52.1958 295.417 52.1958 295.417L50.3543 298.499L50.9707 302.799L59.1532 304.432C63.2445 305.249 68.5685 306.482 69.3852 305.665C70.2019 304.848 70.4099 303.207 70.8183 300.957C71.2266 298.707 72.0433 294.608 71.2266 291.342C70.4099 288.075 72.2514 253.28 72.4594 252.463C72.6674 251.646 77.375 218.038 77.375 218.038C77.375 218.038 80.457 245.668 82.6914 254.05C84.9257 262.433 84.1245 274.923 84.9412 279.831C85.7579 284.739 87.399 301.319 87.607 302.544C87.815 303.769 88.2157 305.626 88.2157 305.626C88.2157 305.626 98.4477 304.193 100.289 303.369C102.156 302.681 104.072 302.135 106.021 301.735C106.021 301.735 106.63 290.07 105.813 285.363C105.218 282.055 104.876 278.706 104.789 275.346C104.789 273.913 105.813 228.494 105.813 228.494L104.789 184.499C104.789 184.499 77.167 187.365 66.5267 185.316C55.8864 183.266 47.1106 182.041 47.1106 182.041L46.9026 184.892Z" fill="#0061AC" stroke="#263238" stroke-linecap="round" stroke-linejoin="round"/>
<path d="M66.5421 185.301C55.9018 183.259 47.1106 182.041 47.1106 182.041L46.9026 184.9C46.9026 184.9 46.9719 187.543 47.0875 191.642C51.9646 193.005 61.873 195.401 71.4501 195.401C81.5742 195.401 97.7003 192.32 104.958 190.848L104.804 184.492C104.804 184.492 77.1824 187.35 66.5421 185.301Z" fill="#263238" stroke="#263238" stroke-linecap="round" stroke-linejoin="round"/>
<path d="M102.084 288.976C102.215 290.386 102.3 291.195 102.3 291.195" stroke="#263238" stroke-linecap="round" stroke-linejoin="round"/>
<path d="M98.9482 195.694C98.9482 195.694 99.7187 235.235 99.7187 250.159C99.7187 260.484 100.967 276.155 101.737 284.831" stroke="#263238" stroke-linecap="round" stroke-linejoin="round"/>
<path d="M57.5352 193.46L59.3997 236.36" stroke="#263238" stroke-linecap="round" stroke-linejoin="round"/>
<path d="M59.022 239.712V246.8" stroke="#263238" stroke-linecap="round" stroke-linejoin="round"/>
<path d="M68.7225 76.8247C67.7151 76.83 66.7235 77.0754 65.8298 77.5403C64.9361 78.0052 64.166 78.6764 63.5834 79.4982C62.3092 81.1795 60.8913 82.7469 59.3458 84.1827L41.0469 94.0064L42.8344 163.858L43.5047 187.743C43.5047 187.743 57.5583 192.427 70.9492 192.427C84.3401 192.427 108.217 187.034 108.217 187.034C108.217 187.034 106.214 93.9755 106.884 93.9755C107.555 93.9755 93.7169 81.9561 87.4683 78.7971C81.2197 75.6381 68.7225 76.8247 68.7225 76.8247Z" fill="#0061AC" stroke="#263238" stroke-linecap="round" stroke-linejoin="round"/>
<path d="M63.5061 85.2692C63.5061 85.2692 70.5945 98.3288 73.584 104.3C76.5734 110.271 82.1517 118.862 82.1517 118.862L91.4822 93.8677" stroke="#263238" stroke-linecap="round" stroke-linejoin="round"/>
<path d="M68.7455 168.103L68.3834 157.679L47.3262 156.454C47.3262 156.454 47.5342 171.802 47.9426 172.634" stroke="#263238" stroke-linecap="round" stroke-linejoin="round"/>
<path d="M68.9998 175.485L68.8997 172.557" stroke="#263238" stroke-linecap="round" stroke-linejoin="round"/>
<path d="M93.9636 173.843L93.3472 156.662C93.3472 156.662 100.713 157.27 106.854 153.179" stroke="#263238" stroke-linecap="round" stroke-linejoin="round"/>
<path d="M62.389 115.719C63.0362 117.76 65.0086 118.962 66.7885 118.392C68.5683 117.822 69.4697 115.703 68.8148 113.661C68.1599 111.62 66.1952 110.418 64.4154 110.988C62.6356 111.558 61.7341 113.677 62.389 115.719Z" stroke="#263238" stroke-linecap="round" stroke-linejoin="round"/>
<path d="M62.5971 79.9683C62.5971 79.9683 60.2318 89.06 65.6097 113.738" stroke="#263238" stroke-width="2" stroke-linecap="round" stroke-linejoin="round"/>
<path d="M67.2662 114.586C67.1076 114.906 66.8607 115.173 66.5546 115.356C66.2486 115.54 65.8963 115.632 65.5397 115.621C65.183 115.61 64.8369 115.498 64.5425 115.296C64.248 115.094 64.0176 114.813 63.8786 114.484C63.7395 114.155 63.6977 113.794 63.7581 113.442C63.8184 113.09 63.9785 112.763 64.2191 112.5C64.4598 112.236 64.771 112.048 65.1158 111.956C65.4606 111.864 65.8245 111.873 66.1644 111.982C66.6538 112.183 67.044 112.57 67.2503 113.057C67.4565 113.545 67.4623 114.094 67.2662 114.586V114.586Z" stroke="#263238" stroke-linecap="round" stroke-linejoin="round"/>
<path d="M105.991 92.6658C105.991 92.6658 109.334 95.1237 109.558 96.0174C109.781 96.9112 121.161 124.132 121.161 124.132L104.65 126.567L104.873 110.495" fill="#0061AC"/>
<path d="M105.991 92.6658C105.991 92.6658 109.334 95.1237 109.558 96.0174C109.781 96.9112 121.161 124.132 121.161 124.132L104.65 126.567L104.873 110.495" stroke="#263238" stroke-linecap="round" stroke-linejoin="round"/>
<path d="M43.2813 93.1127C43.2813 93.1127 39.4828 93.5595 38.589 96.4565C37.6953 99.3536 31.231 128.817 31.231 128.817L54.8847 126.567L52.6503 104.47" fill="#0061AC"/>
<path d="M43.2813 93.1127C43.2813 93.1127 39.4828 93.5595 38.589 96.4565C37.6953 99.3536 31.231 128.817 31.231 128.817L54.8847 126.567L52.6503 104.47" stroke="#263238" stroke-linecap="round" stroke-linejoin="round"/>
<path d="M88.9707 78.5814C88.9707 78.5814 94.8341 81.9252 95.4119 90.2464C95.9898 98.5676 95.4119 100.679 95.4119 100.679" stroke="#263238" stroke-width="2" stroke-linecap="round" stroke-linejoin="round"/>
<path d="M98.0621 111.334C98.0621 111.334 97.5382 121.173 96.4672 124.017C95.3962 126.86 91.1586 130.227 87.7993 130.766" stroke="#263238" stroke-linecap="round" stroke-linejoin="round"/>
<path d="M90.473 110.271C90.473 110.271 90.003 121.62 89.9568 123.732C89.9106 125.843 92.0371 129.518 95.0882 133.039" stroke="#263238" stroke-linecap="round" stroke-linejoin="round"/>
<path d="M95.9635 134.275L96.0532 134.202C96.473 133.862 96.5373 133.246 96.1969 132.826L95.765 132.293C95.4246 131.874 94.8084 131.809 94.3887 132.15L94.2989 132.222C93.8791 132.563 93.8148 133.179 94.1552 133.599L94.5871 134.131C94.9275 134.551 95.5437 134.615 95.9635 134.275Z" fill="#263238"/>
<path d="M86.5932 131.126L86.6147 131.239C86.7153 131.77 87.2273 132.119 87.7583 132.018L88.432 131.891C88.963 131.79 89.3118 131.278 89.2112 130.747L89.1897 130.634C89.0891 130.103 88.5771 129.754 88.0461 129.854L87.3724 129.982C86.8414 130.083 86.4926 130.595 86.5932 131.126Z" fill="#263238"/>
<path d="M98.1778 112.082L97.9544 103.815C97.9336 102.952 97.592 102.129 96.9965 101.505C96.401 100.881 95.5942 100.501 94.7338 100.44V100.44C93.8199 100.372 92.9162 100.668 92.2203 101.265C91.5244 101.861 91.0929 102.708 91.0201 103.622L90.3267 112.005" stroke="#263238" stroke-width="2" stroke-linecap="round" stroke-linejoin="round"/>
<path d="M117.371 131.051L112.047 129.934L93.3007 126.813L67.012 121.805L60.7788 119.055C60.7788 119.055 54.8846 111.35 54.3761 110.579C53.8676 109.809 47.203 112.498 47.4418 113.523C47.6807 114.547 48.4666 124.787 48.9828 125.434C49.499 126.081 55.2545 126.074 55.2545 126.074C55.2545 126.074 82.7144 139.326 83.8547 139.811C99.7034 146.491 107.347 146.43 110.051 146.869C112.755 147.308 114.52 146.214 116.076 144.427C117.632 142.639 117.371 131.051 117.371 131.051Z" fill="#999999" stroke="#263238" stroke-linecap="round" stroke-linejoin="round"/>
<path d="M53.5749 110.472C53.5749 110.472 50.3774 110.603 45.6389 113.8C43.8745 114.994 42.95 115.849 42.95 116.366C43.0509 116.98 43.2242 117.58 43.4662 118.153C46.5383 116.674 49.7556 115.517 53.0663 114.701" fill="#999999"/>
<path d="M53.5749 110.472C53.5749 110.472 50.3774 110.603 45.6389 113.8C43.8745 114.994 42.95 115.849 42.95 116.366C43.0509 116.98 43.2242 117.58 43.4662 118.153C46.5383 116.674 49.7556 115.517 53.0663 114.701" stroke="#263238" stroke-linecap="round" stroke-linejoin="round"/>
<path d="M54.8537 118.669C54.8537 118.669 46.155 120.842 44.745 121.104C43.3351 121.366 43.0808 119.948 43.0808 119.44C43.0808 118.931 43.4661 118.153 44.9993 117.39C46.5326 116.628 54.2451 114.57 54.2451 114.57" fill="#999999"/>
<path d="M54.8537 118.669C54.8537 118.669 46.155 120.842 44.745 121.104C43.3351 121.366 43.0808 119.948 43.0808 119.44C43.0808 118.931 43.4661 118.153 44.9993 117.39C46.5326 116.628 54.2451 114.57 54.2451 114.57" stroke="#263238" stroke-linecap="round" stroke-linejoin="round"/>
<path d="M55.7554 122.637C55.7554 122.637 45.639 123.662 44.8685 123.023C44.6328 122.766 44.4539 122.462 44.3437 122.132C44.2335 121.801 44.1944 121.451 44.229 121.104L53.3207 119.178" fill="#999999"/>
<path d="M55.7554 122.637C55.7554 122.637 45.639 123.662 44.8685 123.023C44.6328 122.766 44.4539 122.462 44.3437 122.132C44.2335 121.801 44.1944 121.451 44.229 121.104L53.3207 119.178" stroke="#263238" stroke-linecap="round" stroke-linejoin="round"/>
<path d="M52.9353 123.146L45.1304 123.531C45.1304 123.531 45.5079 124.687 45.9009 124.81C47.7499 125.267 49.6338 125.568 51.5331 125.712C52.7785 125.752 54.0195 125.881 55.2468 126.097" fill="#999999"/>
<path d="M52.9353 123.146L45.1304 123.531C45.1304 123.531 45.5079 124.687 45.9009 124.81C47.7499 125.267 49.6338 125.568 51.5331 125.712C52.7785 125.752 54.0195 125.881 55.2468 126.097" stroke="#263238" stroke-linecap="round" stroke-linejoin="round"/>
<path d="M36.1389 128.37C36.1389 128.37 39.7062 143.779 40.6 144.889C41.4937 145.998 48.8595 144.889 56.2253 142.654C63.5911 140.42 94.834 127.037 94.834 127.037L99.2951 127.923C99.2951 127.923 97.5076 122.345 94.3872 122.121C91.2667 121.898 54.8847 126.567 54.8847 126.567L36.1389 128.37Z" fill="#999999" stroke="#263238" stroke-linecap="round" stroke-linejoin="round"/>
<path d="M67.3589 67.0011C67.3589 67.0011 67.3589 67.3324 67.3589 67.8949C67.4282 70.8304 67.7133 80.1532 68.4607 82.403C69.3544 85.0765 81.4047 107.621 82.3293 105.833C83.2539 104.046 88.8013 79.7217 88.8013 79.7217V70.1292C88.8013 70.1292 85.8966 72.5794 80.5418 72.5794C75.187 72.5794 67.3589 67.0011 67.3589 67.0011Z" fill="#999999" stroke="#263238" stroke-linecap="round" stroke-linejoin="round"/>
<path d="M85.234 80.2225C86.4835 79.4595 87.6781 78.6098 88.809 77.6799V70.1292C88.809 70.1292 85.9043 72.5794 80.5495 72.5794C75.1947 72.5794 67.3589 67.0011 67.3589 67.0011C67.3589 67.0011 67.3589 67.3324 67.3589 67.8949C67.3589 68.9273 67.4359 70.7533 67.5284 72.7874C67.7397 73.1261 67.9767 73.448 68.2372 73.7505C69.7782 75.5303 77.1594 79.9991 78.9469 80.446C80.7344 80.8928 83.2231 81.332 85.234 80.2225Z" fill="#263238" stroke="#263238" stroke-linecap="round" stroke-linejoin="round"/>
<path d="M94.1638 54.0571C94.1638 54.0571 97.7311 52.0461 97.7311 55.8446C97.7311 59.6431 94.3873 64.1041 94.3873 64.1041L94.1638 54.0571Z" fill="#999999" stroke="#263238" stroke-linecap="round" stroke-linejoin="round"/>
<path d="M62.2506 54.2804C62.2506 54.2804 57.335 52.9398 57.335 57.4086C57.335 61.8774 61.8037 64.7667 61.8037 64.7667H64.8857C64.8857 64.7667 66.6732 69.2354 68.2372 71.0153C69.8013 72.7951 77.1594 77.2638 78.9469 77.7107C80.7344 78.1576 83.1845 78.6045 85.1955 77.4873C87.722 75.9123 90.0501 74.0395 92.1298 71.909C93.0236 70.7995 94.5876 63.2103 94.5876 63.2103C94.5876 63.2103 95.0345 49.5959 94.1408 44.9114C93.247 40.2269 87.4453 32.8611 79.4092 31.9674C71.3731 31.0736 63.7839 37.5456 62.6744 42.677C61.5649 47.8084 62.2506 54.2804 62.2506 54.2804Z" fill="#999999" stroke="#263238" stroke-linecap="round" stroke-linejoin="round"/>
<path d="M76.7509 57.8555C76.7509 57.8555 75.2099 60.976 77.8681 61.8697C80.5262 62.7635 83.8932 62.54 84.5635 61.1994C85.2338 59.8588 84.1166 58.3024 84.1166 58.3024" stroke="#263238" stroke-linecap="round" stroke-linejoin="round"/>
<path d="M74.0771 63.4338C74.0771 63.4338 79.6554 68.1183 87.2446 63.6572" stroke="#263238" stroke-linecap="round" stroke-linejoin="round"/>
<path d="M77.198 67.6714C77.198 67.6714 81.8902 70.3527 85.0107 67.2245" stroke="#263238" stroke-linecap="round" stroke-linejoin="round"/>
<path d="M74.5242 55.1742C75.1412 55.1742 75.6414 54.3739 75.6414 53.3867C75.6414 52.3995 75.1412 51.5992 74.5242 51.5992C73.9072 51.5992 73.407 52.3995 73.407 53.3867C73.407 54.3739 73.9072 55.1742 74.5242 55.1742Z" fill="#263238"/>
<path d="M86.5745 53.1633C86.5745 54.1495 86.0737 54.9508 85.4573 54.9508C84.8409 54.9508 84.3401 54.1803 84.3401 53.1633C84.3401 52.1463 84.8409 51.3835 85.4573 51.3835C86.0737 51.3835 86.5745 52.1771 86.5745 53.1633Z" fill="#263238"/>
<path d="M71.396 50.9365C71.396 50.9365 72.5132 49.149 76.7894 49.8193" stroke="#263238" stroke-linecap="round" stroke-linejoin="round"/>
<path d="M83.6694 50.0429C83.6694 50.0429 85.6804 46.9147 88.8085 50.0429" stroke="#263238" stroke-linecap="round" stroke-linejoin="round"/>
<path d="M94.1638 44.896C93.8739 43.5708 93.3718 42.3011 92.6768 41.1361C92.4168 42.3714 92.3261 43.6363 92.4071 44.896C92.7307 46.5295 93.8787 48.8101 93.8787 49.9504C93.8787 51.0907 93.7092 55.6596 94.5259 55.0124C94.6068 54.9269 94.672 54.8278 94.7185 54.7197C94.7695 51.4361 94.5841 48.153 94.1638 44.896Z" fill="#263238" stroke="#263238" stroke-linecap="round" stroke-linejoin="round"/>
<path d="M82.9456 35.6503C84.3784 35.5744 85.8045 35.4019 87.214 35.1341C84.9376 33.43 82.2547 32.3515 79.4322 32.0059C71.3961 31.1122 63.8069 37.5842 62.6974 42.7156C61.5879 47.847 62.2505 54.319 62.2505 54.319C62.2505 54.319 64.0226 55.5518 64.6775 54.2497C65.3324 52.9476 64.6775 50.8211 65.3324 48.5404C65.9873 46.2598 66.9581 45.1118 67.1199 43.3166C67.2817 41.5214 66.1414 38.9171 66.7963 37.4455C67.4512 35.9739 71.5271 33.2079 74.139 34.1864C76.9492 35.2507 79.9422 35.7483 82.9456 35.6503Z" fill="#263238" stroke="#263238" stroke-linecap="round" stroke-linejoin="round"/>
</svg>
