<svg width="237" height="225" viewBox="0 0 237 225" fill="none" xmlns="http://www.w3.org/2000/svg">
<path d="M234.762 118.953H232.556V118.576C232.554 117.546 232.144 116.558 231.416 115.83C230.688 115.101 229.7 114.692 228.67 114.69H227.176C226.145 114.69 225.156 115.099 224.426 115.828C223.697 116.557 223.286 117.545 223.285 118.576V118.953H221.084C220.79 118.953 220.499 119.01 220.227 119.122C219.955 119.235 219.708 119.399 219.5 119.607C219.292 119.815 219.127 120.062 219.015 120.334C218.903 120.606 218.845 120.897 218.846 121.191V131.387C218.846 131.981 219.082 132.55 219.502 132.97C219.921 133.389 220.491 133.625 221.084 133.625H234.762C235.355 133.624 235.923 133.388 236.343 132.968C236.762 132.549 236.998 131.98 237 131.387V121.191C237 120.598 236.764 120.029 236.344 119.609C235.925 119.189 235.355 118.953 234.762 118.953ZM224.348 118.576C224.349 117.827 224.648 117.109 225.178 116.58C225.708 116.051 226.427 115.753 227.176 115.753H228.67C229.418 115.753 230.136 116.051 230.666 116.58C231.195 117.109 231.493 117.827 231.493 118.576V118.953H224.348V118.576Z" fill="#263238"/>
<path d="M231.998 125.247H229.18V122.435H226.66V125.247H223.843V127.772H226.66V130.585H229.18V127.772H231.998V125.247Z" fill="white"/>
<path d="M230.403 58.193C229.965 58.193 229.531 58.1066 229.126 57.9388C228.721 57.7709 228.354 57.5249 228.044 57.2149C227.735 56.9048 227.489 56.5368 227.322 56.1318C227.155 55.7268 227.069 55.2928 227.07 54.8546V45.8602C227.069 45.422 227.155 44.988 227.322 44.583C227.489 44.178 227.735 43.81 228.044 43.4999C228.354 43.1898 228.721 42.9438 229.126 42.776C229.531 42.6082 229.965 42.5218 230.403 42.5218C230.841 42.5218 231.275 42.6082 231.68 42.776C232.084 42.9438 232.452 43.1898 232.762 43.4999C233.071 43.81 233.316 44.178 233.484 44.583C233.651 44.988 233.737 45.422 233.736 45.8602V54.8387C233.739 55.2782 233.655 55.7139 233.488 56.1207C233.322 56.5275 233.077 56.8975 232.767 57.2093C232.457 57.521 232.089 57.7684 231.683 57.9373C231.277 58.1061 230.842 58.193 230.403 58.193Z" fill="white" stroke="#263238" stroke-linecap="round" stroke-linejoin="round"/>
<path d="M230.403 58.193C229.965 58.193 229.531 58.1066 229.126 57.9387C228.721 57.7709 228.354 57.5249 228.044 57.2148C227.735 56.9048 227.489 56.5367 227.322 56.1317C227.155 55.7267 227.069 55.2927 227.07 54.8546V50.3627H233.736V54.8546C233.737 55.2927 233.651 55.7267 233.484 56.1317C233.316 56.5367 233.071 56.9048 232.762 57.2148C232.452 57.5249 232.084 57.7709 231.68 57.9387C231.275 58.1066 230.841 58.193 230.403 58.193Z" fill="#263238" stroke="#263238" stroke-linecap="round" stroke-linejoin="round"/>
<path d="M213.637 44.9458C213.362 44.6035 213.159 44.2104 213.037 43.7892C212.915 43.3679 212.878 42.9267 212.928 42.491C212.977 42.0553 213.112 41.6337 213.325 41.2503C213.538 40.867 213.824 40.5295 214.168 40.2572L221.169 34.633C221.862 34.0819 222.746 33.8284 223.626 33.928C224.506 34.0277 225.311 34.4724 225.863 35.1646C226.414 35.857 226.667 36.7398 226.568 37.6189C226.468 38.4981 226.023 39.3017 225.331 39.8532L218.325 45.4721C217.983 45.7458 217.59 45.9493 217.169 46.071C216.748 46.1927 216.307 46.2302 215.872 46.1813C215.436 46.1324 215.015 45.9981 214.631 45.7861C214.248 45.5741 213.91 45.2886 213.637 44.9458Z" fill="white" stroke="#263238" stroke-linecap="round" stroke-linejoin="round"/>
<path d="M213.637 44.9458C213.362 44.6035 213.159 44.2105 213.037 43.7892C212.915 43.3679 212.878 42.9267 212.928 42.491C212.977 42.0553 213.112 41.6337 213.325 41.2503C213.538 40.867 213.824 40.5295 214.168 40.2572L217.671 37.4451L221.844 42.6494L218.341 45.4562C217.999 45.7332 217.606 45.9399 217.184 46.0642C216.762 46.1886 216.32 46.2282 215.883 46.1808C215.445 46.1333 215.022 45.9998 214.636 45.7878C214.251 45.5759 213.911 45.2897 213.637 44.9458Z" fill="#263238" stroke="#263238" stroke-linecap="round" stroke-linejoin="round"/>
<path d="M180.301 20.4716C179.885 20.4717 179.48 20.6019 179.142 20.8437L171.397 14.8314C171.776 14.1289 171.954 13.3351 171.911 12.5377C171.868 11.7403 171.605 10.9704 171.152 10.3129L175.883 4.26345C176.284 4.41785 176.723 4.44001 177.137 4.32669C177.551 4.21337 177.917 3.97052 178.183 3.6337C178.449 3.29688 178.6 2.88379 178.614 2.4549C178.629 2.026 178.505 1.60385 178.262 1.25023C178.019 0.896611 177.669 0.630111 177.263 0.489746C176.858 0.349381 176.418 0.342525 176.008 0.470181C175.599 0.597838 175.241 0.853302 174.987 1.19917C174.733 1.54504 174.596 1.96314 174.597 2.39226C174.594 2.80583 174.723 3.20958 174.964 3.54581L170.36 9.44111C169.743 8.92129 168.993 8.58376 168.194 8.46638C167.396 8.34901 166.58 8.45643 165.84 8.77661C165.099 9.09678 164.462 9.61704 164 10.279C163.539 10.941 163.27 11.7185 163.226 12.5243H157.846C157.788 12.0468 157.56 11.6062 157.203 11.2826C156.847 10.9591 156.387 10.774 155.906 10.761C155.425 10.7481 154.956 10.9081 154.583 11.2121C154.21 11.5161 153.958 11.9437 153.874 12.4174C153.789 12.8911 153.878 13.3793 154.123 13.7933C154.368 14.2073 154.754 14.5197 155.209 14.6736C155.665 14.8274 156.161 14.8127 156.607 14.6319C157.053 14.4511 157.419 14.1164 157.639 13.6885H163.327C163.493 14.4614 163.867 15.1744 164.409 15.7506C164.95 16.3268 165.638 16.7446 166.399 16.9589C167.16 17.1732 167.965 17.176 168.728 16.9669C169.49 16.7578 170.181 16.3448 170.727 15.7723L178.429 21.7633C178.278 22.1629 178.257 22.6006 178.372 23.0125C178.486 23.4244 178.73 23.7889 179.066 24.0527C179.403 24.3165 179.814 24.4658 180.242 24.4788C180.669 24.4918 181.089 24.3678 181.441 24.1249C181.793 23.882 182.058 23.533 182.197 23.1288C182.337 22.7246 182.343 22.2865 182.216 21.8784C182.088 21.4703 181.834 21.1136 181.489 20.8605C181.145 20.6074 180.728 20.4711 180.301 20.4716Z" fill="#263238"/>
<path d="M22.9668 58.2568C22.3229 58.2554 21.7058 57.999 21.2505 57.5437C20.7952 57.0884 20.5388 56.4713 20.5374 55.8274V35.6271H25.3961V55.8274C25.3961 56.4717 25.1402 57.0896 24.6846 57.5452C24.229 58.0008 23.6111 58.2568 22.9668 58.2568Z" fill="white" stroke="#263238" stroke-linecap="round" stroke-linejoin="round"/>
<path d="M22.9668 58.2568C22.3229 58.2554 21.7058 57.999 21.2505 57.5437C20.7952 57.0884 20.5388 56.4713 20.5374 55.8274V43.4042H25.3961V55.8274C25.3961 56.4717 25.1402 57.0897 24.6846 57.5452C24.229 58.0008 23.6111 58.2568 22.9668 58.2568Z" fill="#263238" stroke="#263238" stroke-linecap="round" stroke-linejoin="round"/>
<path d="M26.0925 34.447H19.8463V36.2171H26.0925V34.447Z" fill="white" stroke="#263238" stroke-linecap="round" stroke-linejoin="round"/>
<path d="M15.6042 58.2568C14.9603 58.2554 14.3432 57.999 13.888 57.5437C13.4327 57.0884 13.1763 56.4713 13.1749 55.8274V35.6271H18.0336V55.8274C18.0336 56.4717 17.7776 57.0896 17.322 57.5452C16.8664 58.0008 16.2485 58.2568 15.6042 58.2568Z" fill="white" stroke="#263238" stroke-linecap="round" stroke-linejoin="round"/>
<path d="M15.6042 58.2568C14.9603 58.2554 14.3432 57.999 13.888 57.5437C13.4327 57.0884 13.1763 56.4713 13.1749 55.8274V43.4042H18.0336V55.8274C18.0336 56.4717 17.7776 57.0897 17.322 57.5452C16.8664 58.0008 16.2485 58.2568 15.6042 58.2568Z" fill="#263238" stroke="#263238" stroke-linecap="round" stroke-linejoin="round"/>
<path d="M18.7299 34.447H12.4838V36.2171H18.7299V34.447Z" fill="white" stroke="#263238" stroke-linecap="round" stroke-linejoin="round"/>
<path d="M85.694 14.5337L87.629 9.88762C87.6619 9.81277 87.7164 9.74948 87.7856 9.7059C87.8547 9.66231 87.9354 9.64044 88.0171 9.64309C88.099 9.64717 88.1777 9.67641 88.2424 9.72683C88.307 9.77725 88.3546 9.8464 88.3786 9.92484L90.7229 17.6541L92.509 11.9608C92.5336 11.8807 92.5827 11.8104 92.6495 11.7598C92.7163 11.7092 92.7973 11.681 92.8811 11.6791C92.9639 11.6813 93.0441 11.7077 93.1121 11.7549C93.1801 11.8021 93.2328 11.8681 93.2639 11.9449L94.2579 14.8048H99.6323C100.732 13.6553 101.372 12.142 101.429 10.5521C101.439 9.06708 100.9 7.63062 99.9161 6.51863C98.9318 5.40664 97.5713 4.69751 96.0961 4.52743C94.6208 4.35736 93.1346 4.73833 91.9231 5.59718C90.7116 6.45604 89.8601 7.73221 89.5321 9.18061C89.1944 7.74236 88.3398 6.47841 87.131 5.62914C85.9221 4.77987 84.4432 4.40454 82.9757 4.57453C81.5081 4.74452 80.1542 5.44797 79.1715 6.55109C78.1888 7.65422 77.6458 9.08005 77.6458 10.5574C77.7049 12.0298 78.2572 13.4396 79.214 14.5603L85.694 14.5337Z" fill="#263238"/>
<path d="M93.9761 15.6022C93.8934 15.6025 93.8127 15.5771 93.745 15.5295C93.6774 15.4819 93.6263 15.4144 93.5987 15.3364L92.9077 13.3483L91.0949 19.1266C91.0691 19.208 91.0181 19.2791 90.9494 19.3297C90.8806 19.3804 90.7976 19.4079 90.7122 19.4084C90.6266 19.4081 90.5435 19.3799 90.4754 19.3281C90.4073 19.2763 90.3579 19.2037 90.3348 19.1213L87.9373 11.2166L86.3425 15.0866C86.3122 15.1589 86.2613 15.2206 86.196 15.2641C86.1308 15.3076 86.0542 15.3309 85.9757 15.3311H79.8572C81.1702 16.7983 82.8075 18.0954 84.0301 19.3021C85.8801 21.1307 87.6928 23.0232 89.5799 24.788C91.9986 22.4012 94.4333 20.0038 96.8308 17.6169C97.4952 16.9524 98.2182 16.2933 98.888 15.6022H93.9761Z" fill="#263238"/>
<path d="M4.30199 134.419L6.90857 135.323L9.729 127.192L7.12241 126.288L4.30199 134.419Z" fill="white" stroke="#263238" stroke-miterlimit="10"/>
<path d="M3.06623 135.71L7.08911 137.105L7.62045 135.574L3.59757 134.178L3.06623 135.71Z" fill="white" stroke="#263238" stroke-miterlimit="10"/>
<path d="M4.24808 128.381L10.6917 130.616L15.8012 115.885L9.3576 113.65L4.24808 128.381Z" fill="white" stroke="#263238" stroke-miterlimit="10"/>
<path d="M7.38131 122.079L12.1375 123.729L14.9579 115.598L10.2017 113.948L7.38131 122.079Z" fill="#263238" stroke="#263238" stroke-miterlimit="10"/>
<path d="M6.5399 127.973L9.14648 128.878L11.9669 120.746L9.36033 119.842L6.5399 127.973Z" fill="#263238" stroke="#263238" stroke-miterlimit="10"/>
<path d="M3.79317 128.226L11.1559 130.78L11.7952 128.937L4.43251 126.383L3.79317 128.226Z" fill="white" stroke="#263238" stroke-miterlimit="10"/>
<path d="M10.9288 113.343L14.7659 114.674L15.6177 112.218L11.7807 110.887L10.9288 113.343Z" fill="white" stroke="#263238" stroke-miterlimit="10"/>
<path d="M8.74165 113.955L16.1044 116.509L16.7437 114.665L9.38099 112.112L8.74165 113.955Z" fill="white" stroke="#263238" stroke-miterlimit="10"/>
<path d="M13.7384 111.219L16.8216 102.32" stroke="#263238" stroke-miterlimit="10"/>
<path d="M185.165 221.816C200.528 221.816 212.983 219.007 212.983 215.543C212.983 212.079 200.528 209.27 185.165 209.27C169.801 209.27 157.347 212.079 157.347 215.543C157.347 219.007 169.801 221.816 185.165 221.816Z" fill="#263238" stroke="#263238" stroke-linecap="round" stroke-linejoin="round"/>
<path d="M163.715 73.7579C163.715 73.7579 159.952 76.0597 159.994 77.0697C160.037 78.0797 158.591 96.4992 158.426 98.801C158.261 101.103 156.071 105.855 155.901 108.013C155.731 110.172 156.273 112.335 156.906 113.329C157.538 114.323 159.861 117.502 159.861 117.502L166.107 107.854C166.261 105.747 166.293 103.633 166.203 101.523C166.107 96.9245 163.715 73.7579 163.715 73.7579Z" fill="white" stroke="#263238" stroke-linecap="round" stroke-linejoin="round"/>
<path d="M187.748 28.1159C187.748 28.1159 181.104 27.6906 177.319 32.2995C173.534 36.9083 174.347 43.9572 174.32 46.1207C174.294 48.2843 167.867 54.6261 168.579 57.2097C169.292 59.7932 171.184 60.0855 170.578 62.2438C169.972 64.402 166.017 65.6991 166.591 68.4368C167.165 71.1745 169.249 75.055 169.249 75.055L207.523 75.3155C207.523 75.3155 208.89 71.2861 207.433 68.2614C205.977 65.2366 203.909 64.2372 204.244 62.7966C204.578 61.356 206.428 57.9007 205.716 55.3119C205.004 52.723 202.527 52.0054 202.266 47.3965C202.006 42.7877 201.325 35.17 197.668 31.4489C194.01 27.7278 187.748 28.1159 187.748 28.1159Z" fill="#263238" stroke="#263238" stroke-linecap="round" stroke-linejoin="round"/>
<path d="M175.979 205.725C174.804 207.99 173.377 210.115 171.726 212.061C169.281 214.799 166.91 216.239 166.99 217.68C167.07 219.121 172.407 219.402 175.23 218.392C178.052 217.382 180.104 215.368 180.673 215.203C181.242 215.038 182.831 215.203 182.868 213.183C182.906 211.163 182.597 205.411 182.597 205.411L175.979 205.725Z" fill="white" stroke="#263238" stroke-linecap="round" stroke-linejoin="round"/>
<path d="M175.219 218.392C178.047 217.382 180.093 215.368 180.662 215.203C181.231 215.038 182.821 215.203 182.858 213.183C182.858 212.12 182.799 209.993 182.725 208.255C182.307 209.039 181.688 209.699 180.931 210.166C180.175 210.633 179.308 210.89 178.419 210.913C178.419 210.913 178.366 209.903 176.824 208.18C175.83 207.053 174.825 207.941 174.241 208.712L173.768 209.424L173.73 209.493C173.117 210.399 172.446 211.263 171.721 212.082C169.276 214.82 166.905 216.261 166.985 217.701C167.064 219.142 172.396 219.402 175.219 218.392Z" fill="white" stroke="#263238" stroke-linecap="round" stroke-linejoin="round"/>
<path d="M195.674 205.714C197.103 207.987 198.759 210.108 200.618 212.045C203.356 214.777 205.881 216.213 205.934 217.653C205.987 219.094 200.703 219.381 197.769 218.376C194.834 217.372 192.57 215.357 191.99 215.213C191.411 215.07 189.827 215.213 189.577 213.204C189.327 211.195 189.014 205.432 189.014 205.432L195.674 205.714Z" fill="white" stroke="#263238" stroke-linecap="round" stroke-linejoin="round"/>
<path d="M197.79 218.376C194.861 217.372 192.591 215.357 192.012 215.213C191.432 215.07 189.848 215.213 189.598 213.204C189.465 212.141 189.317 210.014 189.205 208.271C189.697 209.05 190.372 209.697 191.172 210.155C191.971 210.613 192.871 210.868 193.792 210.897C193.792 210.897 193.739 209.887 195.084 208.159C195.961 207.038 197.062 207.92 197.742 208.691C197.918 208.925 198.098 209.159 198.274 209.403L198.322 209.472C199.036 210.376 199.799 211.24 200.607 212.061C203.345 214.793 205.87 216.229 205.923 217.669C205.976 219.11 200.724 219.381 197.79 218.376Z" fill="white" stroke="#263238" stroke-linecap="round" stroke-linejoin="round"/>
<path d="M164.417 129.745C164.417 129.745 165.305 159.678 166.485 165.579C167.665 171.48 172.933 205.299 172.933 205.299C174.543 205.981 176.277 206.321 178.026 206.299H183.783L184.314 181.112L184.511 144.555L187.398 206.437C187.398 206.437 195.329 206.719 196.185 206.575C197.041 206.432 197.753 206.288 197.753 206.288L202.851 167.137L205.769 141.089L205.929 130.728C205.929 130.728 181.561 129.883 174.48 129.309C167.399 128.735 164.486 128.591 164.486 128.591L164.417 129.745Z" fill="#0061AC" stroke="#263238" stroke-linecap="round" stroke-linejoin="round"/>
<path d="M197.322 182.595C197.258 183.095 197.195 183.557 197.12 183.983" stroke="#263238" stroke-linecap="round" stroke-linejoin="round"/>
<path d="M197.976 146.559C197.976 146.559 198.47 167.886 197.604 179.464" stroke="#263238" stroke-linecap="round" stroke-linejoin="round"/>
<path d="M171.849 144.847C171.849 144.847 172.46 158.956 173.066 162.118" stroke="#263238" stroke-linecap="round" stroke-linejoin="round"/>
<path d="M194.563 135.858V146.628C195.943 146.999 197.354 147.243 198.779 147.356C200.964 147.5 205.041 147.356 205.041 147.356L205.333 143.279L194.563 135.858Z" fill="#263238" stroke="#263238" stroke-linecap="round" stroke-linejoin="round"/>
<path d="M164.869 144.151C164.869 144.151 170.403 145.9 172.731 146.043C175.059 146.187 177.239 146.479 177.239 146.479L176.952 143.571L164.577 142.407L164.869 144.151Z" fill="#263238" stroke="#263238" stroke-linecap="round" stroke-linejoin="round"/>
<path d="M181.667 62.3766L177.324 67.2726L165.278 76.0597L167.846 129.319C167.846 129.319 177.446 131.903 185.686 132.621C193.925 133.338 204.52 131.451 204.52 131.451L202.962 75.6344C202.962 75.6344 198.274 68.7238 195.871 66.8579C193.468 64.9921 192.368 63.2644 189.184 62.9773C185.999 62.6903 181.667 62.3766 181.667 62.3766Z" fill="#0061AC" stroke="#263238" stroke-linecap="round" stroke-linejoin="round"/>
<path d="M176.628 64.9974L163.715 73.7845L165.741 106.164L165.055 109.417L159.627 115.668L161.94 126.651L160.909 142.147C160.909 142.147 166.038 143.874 169.515 144.3C172.103 144.577 174.705 144.721 177.308 144.73L177.755 123.573C177.755 123.573 179.472 88.451 179.674 86.8935C179.876 85.3359 181.667 62.4404 181.667 62.4404L176.628 64.9974Z" fill="white" stroke="#263238" stroke-linecap="round" stroke-linejoin="round"/>
<path d="M176.835 66.321L170.583 81.9976L177.329 84.799L170.961 85.9579L176.601 108.056" stroke="#263238" stroke-linecap="round" stroke-linejoin="round"/>
<path d="M180.583 58.2037C180.583 58.2037 182.826 73.1679 184.591 76.6232C186.356 80.0785 186.855 81.2267 186.855 81.2267C186.855 81.2267 190.693 69.5637 191.464 67.836C192.235 66.1084 193.059 59.9207 193.059 59.9207C193.059 59.9207 185.409 62.3713 180.583 58.2037Z" fill="white" stroke="#263238" stroke-linecap="round" stroke-linejoin="round"/>
<path d="M180.583 58.2037C180.583 58.2037 180.785 59.5645 181.114 61.558C182.236 62.4138 185.207 64.5296 187.403 64.6412C189.077 64.7263 191.204 63.6418 192.618 62.7753C192.873 61.2071 193.048 59.9207 193.048 59.9207C193.048 59.9207 185.409 62.3713 180.583 58.2037Z" fill="#263238" stroke="#263238" stroke-linecap="round" stroke-linejoin="round"/>
<path d="M177.537 47.859C177.537 47.859 176.006 45.6795 174.974 47.859C173.943 50.0385 176.569 53.2652 177.303 53.7065C179.387 54.9451 178.834 52.6433 178.834 52.6433L177.537 47.859Z" fill="white" stroke="#263238" stroke-linecap="round" stroke-linejoin="round"/>
<path d="M196.551 48.7999C196.551 48.7999 197.843 46.546 199.108 48.6723C200.374 50.7987 198.093 54.1424 197.413 54.6155C195.467 55.9604 195.775 53.6533 195.775 53.6533L196.551 48.7999Z" fill="white" stroke="#263238" stroke-linecap="round" stroke-linejoin="round"/>
<path d="M177.175 45.9347C177.175 45.9347 182.725 44.6376 185.521 42.9844C187.234 41.95 188.727 40.5901 189.917 38.9815C189.917 38.9815 192.32 43.5213 194.436 45.3606C196.551 47.1998 196.993 47.3062 196.993 47.3062C196.993 47.3062 195.977 55.2534 194.829 58.0177C193.681 60.7819 189.933 63.4717 186.435 62.6956C184.447 62.2597 181.003 60.8244 180.003 58.4057C179.004 55.987 177.175 45.9347 177.175 45.9347Z" fill="white" stroke="#263238" stroke-linecap="round" stroke-linejoin="round"/>
<path d="M191.337 52.0426C189.614 52.0851 183.847 52.0958 180.87 50.299C179.676 49.6044 178.559 48.7866 177.537 47.859C177.643 48.3906 177.77 49.0551 177.909 49.7461L178.557 50.2193L180.184 56.3644L179.424 56.5292C179.584 57.1574 179.777 57.7767 180.003 58.3844C181.003 60.8032 184.447 62.2385 186.435 62.6744C189.928 63.4452 193.665 60.7713 194.824 58.0123C194.55 57.4763 194.47 56.8625 194.595 56.274C194.93 54.5357 195.345 51.4898 195.345 51.4898L196.53 50.4266C196.594 50.0385 196.647 49.6664 196.7 49.3262C195.265 50.3203 192.575 52.0107 191.337 52.0426Z" fill="#0061AC" stroke="#263238" stroke-linecap="round" stroke-linejoin="round"/>
<path d="M185.005 49.4751C185.005 49.4751 183.15 47.2211 180.715 47.4285" stroke="#263238" stroke-linecap="round" stroke-linejoin="round"/>
<path d="M189.784 49.9216C190.376 49.2992 191.112 48.8313 191.926 48.5589C192.741 48.2864 193.61 48.2177 194.457 48.3587" stroke="#263238" stroke-linecap="round" stroke-linejoin="round"/>
<path d="M179.647 46.3014C179.647 46.3014 182.305 45.2383 184.66 45.7379" stroke="#263238" stroke-linecap="round" stroke-linejoin="round"/>
<path d="M190.002 46.3174C190.703 45.9596 191.496 45.8258 192.275 45.9342C193.053 46.0427 193.78 46.388 194.356 46.9234" stroke="#263238" stroke-linecap="round" stroke-linejoin="round"/>
<path d="M183.219 48.7361C183.231 48.8178 183.227 48.9011 183.207 48.9811C183.187 49.0612 183.151 49.1365 183.101 49.2027C183.052 49.2688 182.99 49.3246 182.919 49.3668C182.848 49.409 182.769 49.4367 182.688 49.4484C182.521 49.4297 182.368 49.3484 182.26 49.2211C182.151 49.0937 182.095 48.9299 182.103 48.7627C182.09 48.6809 182.094 48.5974 182.114 48.517C182.134 48.4367 182.17 48.3611 182.219 48.2948C182.269 48.2284 182.331 48.1726 182.402 48.1307C182.473 48.0887 182.553 48.0614 182.635 48.0504C182.8 48.0703 182.953 48.1519 183.061 48.2789C183.169 48.406 183.226 48.5692 183.219 48.7361Z" fill="#263238"/>
<path d="M192.846 49.4272C192.861 49.5092 192.858 49.5932 192.839 49.6741C192.819 49.7551 192.784 49.8312 192.734 49.8979C192.684 49.9646 192.621 50.0204 192.549 50.062C192.477 50.1035 192.397 50.1299 192.315 50.1395C192.149 50.1221 191.996 50.0419 191.887 49.9154C191.779 49.7889 191.722 49.6257 191.73 49.4591C191.716 49.3771 191.718 49.2931 191.738 49.2122C191.757 49.1312 191.793 49.0551 191.842 48.9884C191.892 48.9217 191.955 48.8659 192.027 48.8243C192.099 48.7828 192.179 48.7564 192.262 48.7468C192.427 48.7642 192.58 48.8444 192.689 48.9709C192.798 49.0974 192.854 49.2606 192.846 49.4272Z" fill="#263238"/>
<path d="M207.162 70.7066C207.162 70.7066 210.261 72.1419 211.415 74.4277C212.568 76.7135 221.791 101.48 221.749 103.351C221.706 105.223 218.655 107.381 215.795 107.673C212.935 107.966 208.767 102.783 208.145 101.921C207.523 101.06 207.412 90.9813 207.412 90.9813L207.162 70.7066Z" fill="white" stroke="#263238" stroke-linecap="round" stroke-linejoin="round"/>
<path d="M192.554 64.0937L194.064 113.606L194.595 144.837C197.49 145.548 200.455 145.932 203.435 145.979C205.921 146.031 208.393 145.591 210.708 144.682C210.708 144.682 209.804 125.253 209.644 122.085C209.485 118.916 208.432 112.872 208.432 112.872L207.178 70.7066C207.178 70.7066 195.499 65.2419 192.554 64.0937Z" fill="white" stroke="#263238" stroke-linecap="round" stroke-linejoin="round"/>
<path d="M195.871 66.826L201.224 84.2887L196.344 85.6123L201.091 87.9141L195.169 106.727" fill="white"/>
<path d="M195.871 66.826L201.224 84.2887L196.344 85.6123L201.091 87.9141L195.169 106.727" stroke="#263238" stroke-linecap="round" stroke-linejoin="round"/>
<path d="M199.603 82.8002L192.963 114.61C192.963 114.61 197.503 116.046 200.82 116.205C204.137 116.365 211.048 116.343 211.048 116.343L217.959 86.6914C217.959 86.6914 204.355 85.3891 199.603 82.8002Z" fill="#263238" stroke="#263238" stroke-linecap="round" stroke-linejoin="round"/>
<path d="M201.915 112.447L202.133 102.506L207.401 103.617C207.401 103.617 203.919 111.288 201.915 112.447Z" fill="white" stroke="#263238" stroke-linecap="round" stroke-linejoin="round"/>
<path d="M205.95 98.9127C205.95 98.9127 204.547 96.9033 204.095 96.4674C203.643 96.0315 201.41 94.745 200.98 94.745C200.549 94.745 198.237 94.6015 197.79 94.6015C197.344 94.6015 196.839 95.6115 197.296 96.0421C197.753 96.4727 199.342 96.6162 199.342 96.6162L200.432 98.211L195.515 97.7804C195.515 97.7804 194.696 98.6469 194.882 99.3752C195.021 99.8685 195.199 100.35 195.414 100.816C195.395 101.873 195.45 102.93 195.579 103.979C195.77 104.845 196.642 105.132 197.838 105.85C199.034 106.568 203.037 106.137 203.037 106.137H204.887L205.95 98.9127Z" fill="white" stroke="#263238" stroke-linecap="round" stroke-linejoin="round"/>
<path d="M217.937 99.9121L205.179 98.1951C205.179 98.1951 204.185 106.403 203.18 109.135C202.176 111.868 201.915 112.447 201.915 112.447C201.915 112.447 215.285 112.149 218.437 111.862C221.589 111.575 223.359 109.699 223.221 107.11C223.083 104.521 221.504 101.927 221.504 101.927" fill="white"/>
<path d="M217.937 99.9121L205.179 98.1951C205.179 98.1951 204.185 106.403 203.18 109.135C202.176 111.868 201.915 112.447 201.915 112.447C201.915 112.447 215.285 112.149 218.437 111.862C221.589 111.575 223.359 109.699 223.221 107.11C223.083 104.521 221.504 101.927 221.504 101.927" stroke="#263238" stroke-linecap="round" stroke-linejoin="round"/>
<path d="M164.736 108.875C164.736 108.875 167.713 110.741 168.457 111.32C169.201 111.899 169.265 115.636 169.738 116.354C170.211 117.072 169.653 117.508 168.792 117.508C167.931 117.508 166.628 114.775 166.628 114.775L166.575 113.765L160.494 115.785L158.899 113.053C158.899 113.053 160.707 108.875 164.736 108.875Z" fill="white" stroke="#263238" stroke-linecap="round" stroke-linejoin="round"/>
<path d="M120.434 221.816C135.797 221.816 148.251 219.007 148.251 215.543C148.251 212.079 135.797 209.27 120.434 209.27C105.07 209.27 92.6155 212.079 92.6155 215.543C92.6155 219.007 105.07 221.816 120.434 221.816Z" fill="#263238" stroke="#263238" stroke-linecap="round" stroke-linejoin="round"/>
<path d="M142.16 66.4805C142.16 66.4805 145.806 84.783 146.455 88.1692C147.103 91.5555 148.294 99.6037 149.644 103.133C150.994 106.663 150.553 111.182 149.878 112.452C149.201 113.556 148.423 114.595 147.555 115.557L143.026 109.651C143.026 109.651 140.331 80.7111 140.23 76.6125C140.129 72.514 142.16 66.4805 142.16 66.4805Z" fill="white" stroke="#263238" stroke-linecap="round" stroke-linejoin="round"/>
<path d="M144.562 108.928C144.562 108.928 147.433 110.719 147.938 111.479C148.443 112.24 148.804 113.207 148.411 114.031C148.018 114.855 145.875 117.343 145.333 117.827C144.791 118.31 144.334 116.381 144.27 114.722C144.206 113.063 144.562 108.928 144.562 108.928Z" fill="white" stroke="#263238" stroke-linecap="round" stroke-linejoin="round"/>
<path d="M129.125 209.291C129.125 209.291 138.125 213.666 138.694 214.517C139.262 215.367 137.21 216.5 131.847 216.5C126.483 216.5 126.323 215.793 124.192 215.229C122.06 214.666 117.813 215.086 117.239 213.815C116.665 212.545 117.664 208.17 117.664 208.17L129.125 209.291Z" fill="white" stroke="#263238" stroke-linecap="round" stroke-linejoin="round"/>
<path d="M117.175 211.551C117.175 211.551 124.617 216.069 123.963 217.621C123.309 219.174 117.93 219.174 115.096 218.748C112.263 218.323 106.24 214.496 105.921 213.103C105.602 211.71 106.4 209.573 110.764 209.153C115.128 208.733 117.175 211.551 117.175 211.551Z" fill="white" stroke="#263238" stroke-linecap="round" stroke-linejoin="round"/>
<path d="M139.767 137.718C139.767 137.718 135.515 170.47 134.776 175.27C134.037 180.07 131.692 187.693 130.427 193.482C129.71 196.887 129.178 200.327 128.833 203.789C128.703 204.774 128.727 205.773 128.902 206.75C129.082 208.164 129.109 209.291 129.109 209.291C127.216 209.766 125.29 210.097 123.347 210.28C120.949 210.424 117.701 210.424 117.701 210.424L116.638 201.248C116.638 201.248 117.43 187.693 117.898 183.743C118.366 179.794 118.865 148.733 118.844 147.882C118.823 147.032 118.637 139.552 118.637 139.552L133.122 138C133.122 138 135.1 132.355 138.072 132.636C141.043 132.918 139.767 137.718 139.767 137.718Z" fill="white" stroke="#263238" stroke-linecap="round" stroke-linejoin="round"/>
<path d="M138.093 132.636C135.121 132.355 133.144 138 133.144 138L118.642 139.552C118.642 139.552 118.69 141.541 118.738 143.582C120.285 143.72 121.715 143.8 122.937 143.8C127.583 143.792 132.226 143.531 136.844 143.018L137.466 136.512L138.438 143.141L139.108 142.923C139.523 139.765 139.789 137.708 139.789 137.708C139.789 137.708 141.064 132.918 138.093 132.636Z" fill="#263238" stroke="#263238" stroke-linecap="round" stroke-linejoin="round"/>
<path d="M103.513 138.707C103.513 138.707 103.513 138.909 103.545 139.276C103.742 143.135 104.911 165.499 105.267 169.624C105.666 174.143 103.673 179.081 103.774 183.175C103.875 187.268 104.837 209.435 104.837 209.435L105.9 213.103C105.9 213.103 108.398 211.412 110.796 211.412C113.193 211.412 117.175 211.551 117.175 211.551C117.175 211.551 117.382 208.584 117.361 207.601C117.34 206.618 117.249 203.083 117.249 203.083C117.249 203.083 121.305 184.589 121.55 183.036C121.794 181.484 124.941 154.66 124.92 153.799C124.899 152.938 125.585 140.951 125.585 140.951L103.513 138.707Z" fill="white" stroke="#263238" stroke-linecap="round" stroke-linejoin="round"/>
<path d="M125.436 143.773C125.526 142.136 125.59 140.967 125.59 140.967L103.513 138.707C103.513 138.707 103.513 138.909 103.545 139.276C103.545 139.744 103.603 140.483 103.657 141.402C108.818 142.327 117.776 143.784 122.937 143.784C123.788 143.8 124.617 143.789 125.436 143.773Z" fill="#263238" stroke="#263238" stroke-linecap="round" stroke-linejoin="round"/>
<path d="M119.78 52.0266C119.78 52.0266 117.446 52.42 116.558 53.4619C115.669 54.4753 114.868 55.5638 114.166 56.7152C114.044 57.1086 100.318 65.4385 100.318 65.4385L101.307 105.159C101.307 105.159 101.716 111.277 100.988 113.361C99.7578 117.458 99.1609 121.719 99.2178 125.997C99.3454 131.074 99.675 139.287 99.675 139.287C99.675 139.287 115.383 142.412 122.937 142.412C127.584 142.401 132.226 142.137 136.844 141.62L137.466 135.108L138.412 141.753L141.639 140.69L144.296 121.021C144.296 121.021 146.146 116.854 146.125 115.939C146.104 115.025 146.593 113.856 146.056 113.074C145.519 112.293 144.562 110.73 144.562 110.73C144.562 110.73 142.159 67.6553 142.159 66.4804C142.159 65.3056 135.052 58.4109 134.526 58.1505C134 57.89 130.757 53.0685 126.552 51.7714C122.347 50.4743 119.78 52.0266 119.78 52.0266Z" fill="white" stroke="#263238" stroke-linecap="round" stroke-linejoin="round"/>
<path d="M115.5 58.0176L113.927 72.3226L120.391 75.3261L118.775 80.1795L134.941 108.588" stroke="#263238" stroke-linecap="round" stroke-linejoin="round"/>
<path d="M133.558 59.623L138.406 70.9405L136.328 73.7101L139.794 78.5581L138.406 109.741" stroke="#263238" stroke-linecap="round" stroke-linejoin="round"/>
<path d="M119.179 53.9828C119.297 56.7736 119.803 59.5343 120.683 62.1852C122.081 66.0924 131.347 93.0492 131.347 93.0492L137.338 114.143C137.338 114.143 136.546 92.6558 136.525 91.7468C136.503 90.8378 131.985 61.0104 131.985 61.0104C131.985 61.0104 131.214 56.1942 129.997 54.3709C128.779 52.5475 120.619 49.1613 119.179 53.9828Z" fill="#0061AC" stroke="#263238" stroke-linecap="round" stroke-linejoin="round"/>
<path d="M118.605 51.899C118.605 51.899 114.836 52.2871 115.5 58.0176C116.165 63.7481 117.042 67.6553 117.042 67.6553" stroke="#263238" stroke-width="2" stroke-linecap="round" stroke-linejoin="round"/>
<path d="M116.58 75.2092C116.58 75.2092 118.174 81.8487 119.264 83.672C120.354 85.4954 123.65 87.3187 125.994 87.3187" stroke="#263238" stroke-linecap="round" stroke-linejoin="round"/>
<path d="M121.619 73.6463C121.619 73.6463 123.373 81.3277 123.666 82.763C123.958 84.1983 122.99 86.9254 121.364 89.6737" stroke="#263238" stroke-linecap="round" stroke-linejoin="round"/>
<path d="M120.896 90.5826C120.729 90.4906 120.604 90.336 120.551 90.1528C120.497 89.9695 120.518 89.7724 120.609 89.6045L120.795 89.2643C120.841 89.183 120.902 89.1116 120.976 89.0544C121.05 88.9972 121.134 88.9552 121.224 88.9309C121.314 88.9067 121.408 88.9006 121.501 88.9131C121.593 88.9257 121.682 88.9565 121.762 89.0038C121.93 89.096 122.054 89.2501 122.109 89.4331C122.163 89.616 122.144 89.8131 122.055 89.9819L121.869 90.3168C121.823 90.3988 121.761 90.4707 121.687 90.5286C121.613 90.5864 121.529 90.6289 121.438 90.6537C121.348 90.6784 121.253 90.6849 121.16 90.6727C121.067 90.6605 120.977 90.6299 120.896 90.5826Z" fill="#263238"/>
<path d="M126.866 87.4622C126.866 87.556 126.847 87.6488 126.81 87.735C126.774 87.8213 126.72 87.8993 126.652 87.9643C126.585 88.0293 126.505 88.0801 126.417 88.1134C126.33 88.1468 126.236 88.1622 126.143 88.1586H125.755C125.563 88.1544 125.381 88.0751 125.248 87.9379C125.115 87.8006 125.041 87.6164 125.042 87.425C125.042 87.3316 125.06 87.2389 125.096 87.1526C125.132 87.0664 125.185 86.9884 125.252 86.9233C125.319 86.8582 125.399 86.8073 125.486 86.7739C125.573 86.7404 125.667 86.7251 125.76 86.7287H126.148C126.339 86.7342 126.521 86.8137 126.655 86.9505C126.789 87.0874 126.864 87.2708 126.866 87.4622Z" fill="#263238"/>
<path d="M116.59 75.7301L115.697 70.0687C115.597 69.4849 115.724 68.8852 116.051 68.3914C116.378 67.8976 116.88 67.5469 117.457 67.4107V67.4107C118.078 67.2695 118.729 67.3745 119.274 67.7036C119.82 68.0327 120.216 68.5603 120.38 69.1756L121.906 74.8104" stroke="#263238" stroke-width="2" stroke-linecap="round" stroke-linejoin="round"/>
<path d="M137.603 79.5563C138.883 79.4281 139.8 78.1283 139.652 76.6531C139.505 75.1778 138.348 74.0858 137.068 74.214C135.789 74.3421 134.871 75.642 135.019 77.1172C135.167 78.5924 136.324 79.6845 137.603 79.5563Z" fill="white" stroke="#263238" stroke-linecap="round" stroke-linejoin="round"/>
<path d="M131.065 54.2859C131.065 54.2859 136.184 61.4889 137.816 76.1713" stroke="#263238" stroke-width="2" stroke-linecap="round" stroke-linejoin="round"/>
<path d="M137.952 77.8712C138.651 77.8062 139.156 77.0924 139.08 76.2768C139.004 75.4612 138.376 74.8527 137.678 74.9176C136.979 74.9826 136.474 75.6964 136.55 76.512C136.626 77.3276 137.254 77.9361 137.952 77.8712Z" fill="white" stroke="#263238" stroke-linecap="round" stroke-linejoin="round"/>
<path d="M145.434 110.049C145.12 111.022 144.863 112.013 144.663 113.016C144.663 113.441 144.562 114.711 143.568 114.424C142.574 114.137 142.872 109.061 142.999 108.497C143.127 107.934 145.546 109.757 145.546 109.757" fill="white"/>
<path d="M145.434 110.049C145.12 111.022 144.863 112.013 144.663 113.016C144.663 113.441 144.562 114.711 143.568 114.424C142.574 114.137 142.872 109.061 142.999 108.497C143.127 107.934 145.546 109.757 145.546 109.757" stroke="#263238" stroke-linecap="round" stroke-linejoin="round"/>
<path d="M113.167 105.552C114.051 106.039 115.039 106.307 116.048 106.334C117.611 106.334 120.465 105.802 121.513 106.073C122.56 106.344 125.234 109.714 125.234 109.714C125.234 109.714 126.031 110.496 125.654 110.889C125.276 111.283 124.505 111.952 123.974 111.538C123.442 111.123 120.784 108.933 120.784 108.933L114.081 111.671L111.327 110.235L113.167 105.552Z" fill="white" stroke="#263238" stroke-linecap="round" stroke-linejoin="round"/>
<path d="M102.902 64.5295C102.902 64.5295 98.4843 65.0611 97.7347 66.22C96.9852 67.3789 84.8809 93.9582 84.9075 95.133C84.9341 96.3078 109.111 115.333 109.111 115.333L114.331 105.398L101.27 93.2884L106.937 80.1369" fill="white"/>
<path d="M102.902 64.5295C102.902 64.5295 98.4843 65.0611 97.7347 66.22C96.9852 67.3789 84.8809 93.9582 84.9075 95.133C84.9341 96.3078 109.111 115.333 109.111 115.333L114.331 105.398L101.27 93.2884L106.937 80.1369" stroke="#263238" stroke-linecap="round" stroke-linejoin="round"/>
<path d="M111.051 120.134L123.82 120.394L123.756 112.452" stroke="#263238" stroke-linecap="round" stroke-linejoin="round"/>
<path d="M114.097 111.671L110.721 112.931" stroke="#263238" stroke-linecap="round" stroke-linejoin="round"/>
<path d="M117.946 46.2961C117.946 46.2961 119.397 57.6295 120.354 59.32C121.311 61.0104 128.115 67.7829 128.115 67.7829C128.115 67.7829 130.241 59.9738 130.48 58.1505C130.72 56.3272 130.906 49.0338 130.906 49.0338L117.919 45.3871L117.946 46.2961Z" fill="white" stroke="#263238" stroke-linecap="round" stroke-linejoin="round"/>
<path d="M117.946 46.2961C117.946 46.2961 118.116 47.6251 118.376 49.4378C119.394 50.3856 120.557 51.1645 121.821 51.7449C123.495 52.4838 127.961 52.8984 130.783 52.5688C130.858 50.6604 130.906 49.0338 130.906 49.0338L117.919 45.3871L117.946 46.2961Z" fill="#263238" stroke="#263238" stroke-linecap="round" stroke-linejoin="round"/>
<path d="M114.182 36.4032C114.182 36.4032 112.444 34.5799 111.583 36.6584C110.721 38.7369 112.646 41.8679 113.672 42.0008C114.28 42.0802 114.899 42.035 115.49 41.8679C115.49 41.8679 116.218 44.8661 116.888 45.7751C118.206 47.442 119.895 48.778 121.821 49.677C124.192 50.7401 132.128 51.1176 133.133 49.677C134.138 48.2364 134.079 40.5602 134.063 39.9117C134.047 39.2632 133.936 29.9816 133.936 29.9816C133.936 29.9816 134.648 26.7602 133.681 24.5435C132.713 22.3268 123.001 19.2276 120.561 20.5088C118.121 21.7899 115.309 24.0225 115.118 26.8878C114.926 29.7531 115.043 34.4417 115.043 34.4417L114.182 36.4032Z" fill="white" stroke="#263238" stroke-linecap="round" stroke-linejoin="round"/>
<path d="M128.535 32.3632C128.535 32.3632 130.156 39.8054 129.784 40.6985C129.412 41.5915 128.248 41.6075 126.791 40.826C125.335 40.0446 126.095 39.0027 126.095 39.0027" stroke="#263238" stroke-linecap="round" stroke-linejoin="round"/>
<path d="M122.889 40.959C122.889 40.959 123.591 42.9099 124.893 43.0428C126.196 43.1757 129.465 43.4309 129.465 43.4309" stroke="#263238" stroke-linecap="round" stroke-linejoin="round"/>
<path d="M118.238 32.6237L118.445 35.7494C118.445 35.7494 119.636 36.4033 122.368 36.4033C125.101 36.4033 125.999 35.7494 125.999 35.7494L125.925 32.6237C125.925 32.6237 121.959 30.2794 118.238 32.6237Z" stroke="#263238" stroke-linecap="round" stroke-linejoin="round"/>
<path d="M128.545 32.6237L129.534 35.8823C129.534 35.8823 129.938 36.4139 132.676 36.4139C135.414 36.4139 136.312 35.7601 136.312 35.7601L136.232 32.6343C136.232 32.6343 132.261 30.2794 128.545 32.6237Z" stroke="#263238" stroke-linecap="round" stroke-linejoin="round"/>
<path d="M125.941 32.6237H128.546" stroke="#263238" stroke-linecap="round" stroke-linejoin="round"/>
<path d="M118.254 32.6237L113.119 35.6218" stroke="#263238" stroke-linecap="round" stroke-linejoin="round"/>
<path d="M119.519 31.0608C119.519 31.0608 120.912 29.4979 124.069 30.8003" stroke="#263238" stroke-linecap="round" stroke-linejoin="round"/>
<path d="M129.024 31.0608C129.493 30.6846 130.058 30.4485 130.656 30.3799C131.253 30.3112 131.857 30.4128 132.4 30.6728" stroke="#263238" stroke-linecap="round" stroke-linejoin="round"/>
<path d="M122.847 34.059C122.847 34.6331 122.64 35.1221 122.353 35.1221C122.065 35.1221 121.821 34.6543 121.821 34.059C121.821 33.4636 122.028 32.9958 122.321 32.9958C122.613 32.9958 122.836 33.4795 122.847 34.059Z" fill="#263238"/>
<path d="M131.182 33.9261C131.182 34.5002 130.975 34.9893 130.688 34.9893C130.401 34.9893 130.156 34.5215 130.156 33.9261C130.156 33.3307 130.364 32.8629 130.651 32.8629C130.938 32.8629 131.166 33.352 131.182 33.9261Z" fill="#263238"/>
<path d="M122.262 21.8803C122.262 21.8803 123.517 24.6499 121.959 25.6599C121.478 25.938 120.933 26.0845 120.378 26.0845C119.822 26.0845 119.277 25.938 118.796 25.6599C119.21 26.2319 119.442 26.9158 119.46 27.6218C119.478 28.3277 119.282 29.0225 118.897 29.6149C118.134 30.8871 117.243 32.0786 116.239 33.1712C116.239 33.1712 116.521 36.5362 115.936 36.9296C115.352 37.3229 113.757 36.7329 113.73 35.7441C113.704 34.7554 113.066 32.7779 113.039 31.7891C113.013 30.8004 112.555 28.2275 112.555 28.2275C112.555 28.2275 108.558 26.4467 110.679 24.2725C112.8 22.0983 117.302 20.3175 117.302 20.3175C117.302 20.3175 117.403 16.3624 120.141 15.177C122.879 13.9916 128.769 12.2107 128.817 14.1882C128.892 15.206 128.709 16.2262 128.285 17.1545C128.285 17.1545 133.223 16.9578 136.668 20.344C140.113 23.7302 139.996 26.8719 138.215 26.8719C136.434 26.8719 135.855 27.2653 135.855 27.2653C135.855 27.2653 139.262 29.2428 137.508 30.2316C135.754 31.2203 133.946 30.0349 133.946 30.0349C133.946 30.0349 134.701 28.6527 132.479 26.8454C130.257 25.038 122.262 21.8803 122.262 21.8803Z" fill="#263238" stroke="#263238" stroke-linecap="round" stroke-linejoin="round"/>
<path d="M54.8091 221.816C70.1725 221.816 82.627 219.007 82.627 215.543C82.627 212.079 70.1725 209.27 54.8091 209.27C39.4456 209.27 26.9911 212.079 26.9911 215.543C26.9911 219.007 39.4456 221.816 54.8091 221.816Z" fill="#263238" stroke="#263238" stroke-linecap="round" stroke-linejoin="round"/>
<path d="M73.1276 85.7984V90.8804L80.5166 94.2666C80.5166 94.2666 81.2874 90.8804 80.6708 84.8734L73.1276 85.7984Z" fill="#999999" stroke="#263238" stroke-linecap="round" stroke-linejoin="round"/>
<path d="M36.4534 207.75C34.7621 209.202 33.1641 210.759 31.6691 212.412C29.5427 214.809 29.1281 217.196 31.1056 218.339C33.0831 219.482 36.1876 219.184 39.5738 217.069C42.96 214.953 42.8218 214.102 44.7993 213.401C46.7768 212.699 48.0473 211.274 48.0473 209.02C48.0473 206.766 40.8443 206.479 39.292 206.362C37.7398 206.245 36.4534 207.75 36.4534 207.75Z" fill="white" stroke="#263238" stroke-linecap="round" stroke-linejoin="round"/>
<path d="M48.0313 209.02C48.0313 209.02 44.8418 210.434 43.2948 211.721C41.7479 213.007 38.6647 217.637 35.0605 217.637C33.2251 217.639 31.4202 217.169 29.8191 216.271C29.8214 216.699 29.9411 217.118 30.1651 217.483C30.3892 217.847 30.7089 218.144 31.0896 218.339C33.0671 219.466 36.1716 219.184 39.5578 217.069C42.944 214.953 42.8058 214.102 44.7833 213.401C46.7608 212.699 48.0313 211.28 48.0313 209.02Z" stroke="#263238" stroke-linecap="round" stroke-linejoin="round"/>
<path d="M72.277 207.75C73.9683 209.202 75.5662 210.759 77.0613 212.412C79.1877 214.809 79.6023 217.196 77.6248 218.339C75.6473 219.482 72.5428 219.184 69.1566 217.069C65.7704 214.953 65.9086 214.102 63.9311 213.401C61.9536 212.699 60.6831 211.274 60.6831 209.02C60.6831 206.766 67.8861 206.479 69.4384 206.362C70.9906 206.245 72.277 207.75 72.277 207.75Z" fill="white" stroke="#263238" stroke-linecap="round" stroke-linejoin="round"/>
<path d="M60.699 209.02C60.699 209.02 63.8885 210.434 65.4354 211.721C66.9823 213.007 70.0656 217.637 73.6697 217.637C75.5051 217.639 77.3101 217.169 78.9112 216.271C78.9088 216.699 78.7891 217.118 78.5651 217.483C78.3411 217.847 78.0213 218.144 77.6407 218.339C75.6632 219.466 72.5587 219.184 69.1725 217.069C65.7863 214.953 65.9245 214.102 63.947 213.401C61.9695 212.699 60.699 211.28 60.699 209.02Z" stroke="#263238" stroke-linecap="round" stroke-linejoin="round"/>
<path d="M32.3601 127.565C32.3601 127.565 33.2053 159.328 33.6306 163.99C34.0559 168.652 35.3104 179.236 35.3104 179.82C35.3104 180.405 36.0121 203.821 36.0121 203.821L34.7416 205.948L35.1669 208.914L40.8123 210.041C43.6351 210.604 47.3083 211.455 47.8718 210.892C48.4353 210.328 48.5788 209.196 48.8606 207.644C49.1423 206.091 49.7058 203.263 49.1423 201.009C48.5788 198.755 49.8493 174.749 49.9929 174.185C50.1364 173.622 53.3844 150.434 53.3844 150.434C53.3844 150.434 55.5107 169.497 57.0523 175.28C58.5939 181.064 58.0411 189.681 58.6046 193.067C59.1681 196.454 60.3003 207.893 60.4439 208.739C60.5874 209.584 60.8638 210.865 60.8638 210.865C60.8638 210.865 67.9233 209.876 69.1938 209.307C70.4819 208.833 71.804 208.456 73.1488 208.18C73.1488 208.18 73.5688 200.132 73.0053 196.884C72.5947 194.602 72.3583 192.292 72.2983 189.974C72.2983 188.985 73.0053 157.648 73.0053 157.648L72.2983 127.294C72.2983 127.294 53.2409 129.272 45.8996 127.858C38.5584 126.444 32.5036 125.598 32.5036 125.598L32.3601 127.565Z" fill="#0061AC" stroke="#263238" stroke-linecap="round" stroke-linejoin="round"/>
<path d="M45.9103 127.847C38.5691 126.438 32.5036 125.598 32.5036 125.598L32.3601 127.571C32.3601 127.571 32.408 129.394 32.4877 132.222C35.8526 133.163 42.6889 134.816 49.2965 134.816C56.2815 134.816 67.4077 132.69 72.4152 131.674L72.3089 127.289C72.3089 127.289 53.2515 129.261 45.9103 127.847Z" fill="#263238" stroke="#263238" stroke-linecap="round" stroke-linejoin="round"/>
<path d="M70.4324 199.377C70.5227 200.35 70.5812 200.908 70.5812 200.908" stroke="#263238" stroke-linecap="round" stroke-linejoin="round"/>
<path d="M68.2688 135.018C68.2688 135.018 68.8004 162.299 68.8004 172.596C68.8004 179.719 69.6616 190.532 70.1931 196.517" stroke="#263238" stroke-linecap="round" stroke-linejoin="round"/>
<path d="M39.696 133.476L40.9824 163.075" stroke="#263238" stroke-linecap="round" stroke-linejoin="round"/>
<path d="M40.722 165.388V170.278" stroke="#263238" stroke-linecap="round" stroke-linejoin="round"/>
<path d="M47.4147 53.0047C46.7197 53.0084 46.0355 53.1777 45.4189 53.4984C44.8023 53.8192 44.271 54.2823 43.869 54.8493C42.9899 56.0093 42.0116 57.0907 40.9453 58.0814L28.3201 64.8591L29.5534 113.053L30.0158 129.532C30.0158 129.532 39.712 132.764 48.951 132.764C58.19 132.764 74.6639 129.043 74.6639 129.043C74.6639 129.043 73.2817 64.8378 73.7442 64.8378C74.2067 64.8378 64.6594 56.5451 60.3482 54.3656C56.037 52.1861 47.4147 53.0047 47.4147 53.0047Z" fill="#0061AC" stroke="#263238" stroke-linecap="round" stroke-linejoin="round"/>
<path d="M43.8157 58.8309C43.8157 58.8309 48.7063 67.8413 50.7689 71.9612C52.8315 76.081 56.6802 82.0082 56.6802 82.0082L63.1177 64.7635" stroke="#263238" stroke-linecap="round" stroke-linejoin="round"/>
<path d="M47.4306 115.982L47.1808 108.79L32.6525 107.944C32.6525 107.944 32.796 118.534 33.0777 119.108" stroke="#263238" stroke-linecap="round" stroke-linejoin="round"/>
<path d="M47.6061 121.075L47.537 119.055" stroke="#263238" stroke-linecap="round" stroke-linejoin="round"/>
<path d="M64.8294 119.942L64.4042 108.088C64.4042 108.088 69.4862 108.508 73.7229 105.685" stroke="#263238" stroke-linecap="round" stroke-linejoin="round"/>
<path d="M43.0451 79.8393C43.4916 81.248 44.8525 82.0773 46.0804 81.6839C47.3084 81.2905 47.9303 79.8286 47.4785 78.4199C47.0266 77.0112 45.6711 76.182 44.4431 76.5753C43.2152 76.9687 42.5932 78.4306 43.0451 79.8393Z" stroke="#263238" stroke-linecap="round" stroke-linejoin="round"/>
<path d="M43.1885 55.1736C43.1885 55.1736 41.5565 61.4464 45.267 78.4731" stroke="#263238" stroke-width="2" stroke-linecap="round" stroke-linejoin="round"/>
<path d="M46.4099 79.0578C46.3005 79.2784 46.1302 79.4629 45.919 79.5895C45.7079 79.7161 45.4648 79.7795 45.2187 79.7721C44.9727 79.7647 44.7339 79.6868 44.5307 79.5477C44.3276 79.4086 44.1686 79.2142 44.0727 78.9875C43.9768 78.7607 43.9479 78.5112 43.9896 78.2686C44.0312 78.0259 44.1416 77.8003 44.3076 77.6186C44.4737 77.4368 44.6884 77.3065 44.9263 77.2431C45.1642 77.1797 45.4153 77.186 45.6498 77.261C45.9875 77.4002 46.2567 77.6669 46.399 78.0033C46.5413 78.3396 46.5452 78.7186 46.4099 79.0578V79.0578Z" stroke="#263238" stroke-linecap="round" stroke-linejoin="round"/>
<path d="M73.1275 63.9342C73.1275 63.9342 75.4346 65.63 75.5888 66.2466C75.743 66.8633 83.5945 85.6442 83.5945 85.6442L72.2026 87.3241L72.3567 76.2351" fill="#0061AC"/>
<path d="M73.1275 63.9342C73.1275 63.9342 75.4346 65.63 75.5888 66.2466C75.743 66.8633 83.5945 85.6442 83.5945 85.6442L72.2026 87.3241L72.3567 76.2351" stroke="#263238" stroke-linecap="round" stroke-linejoin="round"/>
<path d="M29.8616 64.2425C29.8616 64.2425 27.2409 64.5508 26.6243 66.5496C26.0076 68.5483 21.5476 88.8763 21.5476 88.8763L37.8673 87.324L36.3257 72.0781" fill="#0061AC"/>
<path d="M29.8616 64.2425C29.8616 64.2425 27.2409 64.5508 26.6243 66.5496C26.0076 68.5483 21.5476 88.8763 21.5476 88.8763L37.8673 87.324L36.3257 72.0781" stroke="#263238" stroke-linecap="round" stroke-linejoin="round"/>
<path d="M61.3847 54.2167C61.3847 54.2167 65.4301 56.5238 65.8288 62.265C66.2275 68.0061 65.8288 69.4627 65.8288 69.4627" stroke="#263238" stroke-width="2" stroke-linecap="round" stroke-linejoin="round"/>
<path d="M67.6575 76.8145C67.6575 76.8145 67.296 83.6029 66.5571 85.5644C65.8182 87.526 62.8945 89.849 60.5768 90.2212" stroke="#263238" stroke-linecap="round" stroke-linejoin="round"/>
<path d="M62.4214 76.081C62.4214 76.081 62.0971 83.9113 62.0652 85.3678C62.0333 86.8244 63.5005 89.36 65.6056 91.7894" stroke="#263238" stroke-linecap="round" stroke-linejoin="round"/>
<path d="M66.2094 92.6422L66.2713 92.592C66.5609 92.3571 66.6053 91.932 66.3704 91.6424L66.0724 91.2749C65.8376 90.9853 65.4124 90.9409 65.1228 91.1758L65.0609 91.226C64.7713 91.4608 64.7269 91.886 64.9618 92.1756L65.2598 92.5431C65.4946 92.8327 65.9198 92.8771 66.2094 92.6422Z" fill="#263238"/>
<path d="M59.7444 90.4693L59.7593 90.5477C59.8287 90.914 60.1819 91.1547 60.5483 91.0853L61.0131 90.9972C61.3794 90.9278 61.6201 90.5745 61.5507 90.2082L61.5359 90.1299C61.4665 89.7635 61.1132 89.5228 60.7469 89.5923L60.282 89.6803C59.9157 89.7498 59.675 90.103 59.7444 90.4693Z" fill="#263238"/>
<path d="M67.7373 77.3302L67.5831 71.6262C67.5687 71.0313 67.3331 70.463 66.9222 70.0325C66.5113 69.6019 65.9547 69.34 65.3611 69.2979V69.2979C64.7305 69.2509 64.107 69.4555 63.6269 69.8669C63.1468 70.2783 62.849 70.8631 62.7988 71.4933L62.3204 77.277" stroke="#263238" stroke-width="2" stroke-linecap="round" stroke-linejoin="round"/>
<path d="M80.9791 90.4179L77.3058 89.6471L64.3723 87.4942L46.2345 84.0389L41.9339 82.1411C41.9339 82.1411 37.8673 76.8252 37.5165 76.2936C37.1656 75.762 32.5674 77.6173 32.7322 78.3243C32.897 79.0313 33.4392 86.0961 33.7953 86.5426C34.1515 86.9892 38.1225 86.9838 38.1225 86.9838C38.1225 86.9838 57.0682 96.1272 57.855 96.4621C68.7898 101.071 74.0631 101.028 75.929 101.331C77.7948 101.634 79.0122 100.88 80.086 99.6463C81.1598 98.413 80.9791 90.4179 80.9791 90.4179Z" fill="#999999" stroke="#263238" stroke-linecap="round" stroke-linejoin="round"/>
<path d="M36.9636 76.2192C36.9636 76.2192 34.7575 76.3095 31.4882 78.5156C30.2709 79.3396 29.633 79.9297 29.633 80.2858C29.7027 80.7095 29.8222 81.1235 29.9892 81.5191C32.1087 80.4984 34.3285 79.7003 36.6127 79.1376" fill="#999999"/>
<path d="M36.9636 76.2192C36.9636 76.2192 34.7575 76.3095 31.4882 78.5156C30.2709 79.3396 29.633 79.9297 29.633 80.2858C29.7027 80.7095 29.8222 81.1235 29.9892 81.5191C32.1087 80.4984 34.3285 79.7003 36.6127 79.1376" stroke="#263238" stroke-linecap="round" stroke-linejoin="round"/>
<path d="M37.8461 81.8752C37.8461 81.8752 31.8445 83.3743 30.8717 83.555C29.8989 83.7358 29.7234 82.7577 29.7234 82.4068C29.7234 82.056 29.9892 81.5191 31.0471 80.9928C32.105 80.4665 37.4262 79.0472 37.4262 79.0472" fill="#999999"/>
<path d="M37.8461 81.8752C37.8461 81.8752 31.8445 83.3743 30.8717 83.555C29.8989 83.7358 29.7234 82.7577 29.7234 82.4068C29.7234 82.056 29.9892 81.5191 31.0471 80.9928C32.105 80.4665 37.4262 79.0472 37.4262 79.0472" stroke="#263238" stroke-linecap="round" stroke-linejoin="round"/>
<path d="M38.4681 84.6129C38.4681 84.6129 31.4883 85.3199 30.9567 84.8787C30.7941 84.7016 30.6707 84.4921 30.5946 84.264C30.5186 84.0359 30.4916 83.7943 30.5155 83.555L36.7882 82.2261" fill="#999999"/>
<path d="M38.4681 84.6129C38.4681 84.6129 31.4883 85.3199 30.9567 84.8787C30.7941 84.7016 30.6707 84.4921 30.5946 84.264C30.5186 84.0359 30.4916 83.7943 30.5155 83.555L36.7882 82.2261" stroke="#263238" stroke-linecap="round" stroke-linejoin="round"/>
<path d="M36.5224 84.9637L31.1374 85.2295C31.1374 85.2295 31.3979 86.0269 31.669 86.112C32.9447 86.4271 34.2445 86.6351 35.5549 86.7339C36.4142 86.7622 37.2704 86.851 38.1171 86.9997" fill="#999999"/>
<path d="M36.5224 84.9637L31.1374 85.2295C31.1374 85.2295 31.3979 86.0269 31.669 86.112C32.9447 86.4271 34.2445 86.6351 35.5549 86.7339C36.4142 86.7622 37.2704 86.851 38.1171 86.9997" stroke="#263238" stroke-linecap="round" stroke-linejoin="round"/>
<path d="M24.9338 88.5679C24.9338 88.5679 27.3951 99.1997 28.0117 99.9652C28.6284 100.731 33.7103 99.9652 38.7923 98.4236C43.8743 96.882 65.4302 87.6483 65.4302 87.6483L68.5081 88.2596C68.5081 88.2596 67.2748 84.4109 65.1219 84.2568C62.9689 84.1026 37.8674 87.324 37.8674 87.324L24.9338 88.5679Z" fill="#999999" stroke="#263238" stroke-linecap="round" stroke-linejoin="round"/>
<path d="M46.4738 46.227C46.4738 46.227 46.4738 46.4556 46.4738 46.8436C46.5216 48.869 46.7183 55.3012 47.2339 56.8534C47.8506 58.698 56.1646 74.2523 56.8025 73.019C57.4404 71.7857 61.2678 55.0035 61.2678 55.0035V48.3852C61.2678 48.3852 59.2638 50.0757 55.5692 50.0757C51.8747 50.0757 46.4738 46.227 46.4738 46.227Z" fill="#999999" stroke="#263238" stroke-linecap="round" stroke-linejoin="round"/>
<path d="M58.8066 55.349C59.6687 54.8226 60.4929 54.2364 61.2732 53.5948V48.3852C61.2732 48.3852 59.2691 50.0757 55.5745 50.0757C51.88 50.0757 46.4738 46.227 46.4738 46.227C46.4738 46.227 46.4738 46.4556 46.4738 46.8436C46.4738 47.556 46.5269 48.8158 46.5907 50.2192C46.7365 50.4529 46.9 50.675 47.0798 50.8837C48.1429 52.1117 53.2355 55.1949 54.4688 55.5032C55.7021 55.8115 57.4191 56.1145 58.8066 55.349Z" fill="#263238" stroke="#263238" stroke-linecap="round" stroke-linejoin="round"/>
<path d="M64.9677 37.2963C64.9677 37.2963 67.429 35.9089 67.429 38.5296C67.429 41.1504 65.1219 44.2282 65.1219 44.2282L64.9677 37.2963Z" fill="#999999" stroke="#263238" stroke-linecap="round" stroke-linejoin="round"/>
<path d="M42.9493 37.4505C42.9493 37.4505 39.5578 36.5255 39.5578 39.6087C39.5578 42.6919 42.641 44.6854 42.641 44.6854H44.7674C44.7674 44.6854 46.0006 47.7686 47.0798 48.9966C48.1589 50.2245 53.2355 53.3077 54.4688 53.6161C55.7021 53.9244 57.3926 54.2327 58.78 53.4619C60.5232 52.3752 62.1294 51.0831 63.5643 49.6132C64.1809 48.8477 65.2601 43.6116 65.2601 43.6116C65.2601 43.6116 65.5684 34.2184 64.9517 30.9864C64.3351 27.7543 60.3322 22.6723 54.7878 22.0557C49.2433 21.4391 44.0072 25.9044 43.2417 29.4448C42.4762 32.9851 42.9493 37.4505 42.9493 37.4505Z" fill="#999999" stroke="#263238" stroke-linecap="round" stroke-linejoin="round"/>
<path d="M52.9538 39.9171C52.9538 39.9171 51.8907 42.07 53.7246 42.6866C55.5586 43.3033 57.8816 43.1491 58.3441 42.2241C58.8066 41.2992 58.0358 40.2254 58.0358 40.2254" stroke="#263238" stroke-linecap="round" stroke-linejoin="round"/>
<path d="M51.1092 43.7657C51.1092 43.7657 54.9579 46.9978 60.194 43.9199" stroke="#263238" stroke-linecap="round" stroke-linejoin="round"/>
<path d="M53.2621 46.6895C53.2621 46.6895 56.4995 48.5394 58.6524 46.3812" stroke="#263238" stroke-linecap="round" stroke-linejoin="round"/>
<path d="M51.4174 38.0671C51.8431 38.0671 52.1882 37.5149 52.1882 36.8338C52.1882 36.1527 51.8431 35.6005 51.4174 35.6005C50.9917 35.6005 50.6466 36.1527 50.6466 36.8338C50.6466 37.5149 50.9917 38.0671 51.4174 38.0671Z" fill="#263238"/>
<path d="M59.7315 36.6797C59.7315 37.3601 59.386 37.913 58.9607 37.913C58.5355 37.913 58.1899 37.3814 58.1899 36.6797C58.1899 35.978 58.5355 35.4517 58.9607 35.4517C59.386 35.4517 59.7315 35.9993 59.7315 36.6797Z" fill="#263238"/>
<path d="M49.2592 35.1434C49.2592 35.1434 50.03 33.9101 52.9803 34.3726" stroke="#263238" stroke-linecap="round" stroke-linejoin="round"/>
<path d="M57.7274 34.5268C57.7274 34.5268 59.1149 32.3685 61.2731 34.5268" stroke="#263238" stroke-linecap="round" stroke-linejoin="round"/>
<path d="M64.9676 30.9757C64.7677 30.0614 64.4212 29.1854 63.9417 28.3816C63.7623 29.2339 63.6998 30.1066 63.7556 30.9757C63.9789 32.1027 64.771 33.6762 64.771 34.463C64.771 35.2497 64.654 38.402 65.2175 37.9555C65.2733 37.8965 65.3183 37.8281 65.3504 37.7535C65.3856 35.488 65.2577 33.2229 64.9676 30.9757Z" fill="#263238" stroke="#263238" stroke-linecap="round" stroke-linejoin="round"/>
<path d="M57.2278 24.5967C58.2163 24.5444 59.2002 24.4254 60.1728 24.2406C58.6022 23.0648 56.7511 22.3207 54.8037 22.0823C49.2593 21.4657 44.0232 25.931 43.2577 29.4714C42.4922 33.0118 42.9493 37.4771 42.9493 37.4771C42.9493 37.4771 44.172 38.3276 44.6238 37.4292C45.0757 36.5309 44.6238 35.0637 45.0757 33.4902C45.5275 31.9167 46.1973 31.1246 46.309 29.886C46.4206 28.6474 45.6339 26.8507 46.0857 25.8353C46.5376 24.82 49.3497 22.9116 51.1517 23.5867C53.0906 24.3211 55.1556 24.6643 57.2278 24.5967Z" fill="#263238" stroke="#263238" stroke-linecap="round" stroke-linejoin="round"/>
</svg>
