<svg width="51" height="51" viewBox="0 0 51 51" fill="none" xmlns="http://www.w3.org/2000/svg">
<circle cx="25.5" cy="25.5" r="25.5" fill="#F7C480"/>
<path fill-rule="evenodd" clip-rule="evenodd" d="M21.2574 18.1022C22.3826 17.0306 23.9087 16.4286 25.5 16.4286C27.0913 16.4286 28.6174 17.0306 29.7426 18.1022C30.8679 19.1739 31.5 20.6273 31.5 22.1429V22.8571H30C29.4033 22.8571 28.831 23.0829 28.409 23.4848C27.9871 23.8866 27.75 24.4317 27.75 25V27.1429C27.75 27.7112 27.9871 28.2562 28.409 28.6581C28.831 29.0599 29.4033 29.2857 30 29.2857H30.75C30.8582 29.2857 30.9656 29.2783 31.0714 29.2637C30.7725 29.976 30.3232 30.6306 29.7426 31.1835C29.1442 31.7534 28.4324 32.1905 27.6577 32.4749C27.581 32.2632 27.4577 32.0669 27.2921 31.9013C26.9938 31.603 26.5812 31.4286 26.1429 31.4286H24.8571C24.4188 31.4286 24.0062 31.603 23.7079 31.9013C23.4109 32.1984 23.25 32.5942 23.25 33V33.4286C23.25 33.8344 23.4109 34.2302 23.7079 34.5273C24.0062 34.8255 24.4188 35 24.8571 35H25.65C26.409 35 27.0739 34.6165 27.4429 34.0419C28.703 33.72 29.8647 33.0875 30.8033 32.1936C32.2075 30.8562 32.9974 29.0431 33 27.152L33 27.1429V22.1429C33 20.2485 32.2098 18.4316 30.8033 17.0921C29.3968 15.7525 27.4891 15 25.5 15C23.5109 15 21.6032 15.7525 20.1967 17.0921C18.7902 18.4316 18 20.2485 18 22.1429V27.1429C18 27.7112 18.2371 28.2562 18.659 28.6581C19.081 29.0599 19.6533 29.2857 20.25 29.2857H21C21.5967 29.2857 22.169 29.0599 22.591 28.6581C23.0129 28.2562 23.25 27.7112 23.25 27.1429V25C23.25 24.4317 23.0129 23.8866 22.591 23.4848C22.169 23.0829 21.5967 22.8571 21 22.8571H19.5V22.1429C19.5 20.6273 20.1321 19.1739 21.2574 18.1022ZM30 24.2857H31.5V27.1384L31.5 27.1429L31.5 27.1484C31.4985 27.3358 31.4196 27.5153 31.2803 27.6479C31.1397 27.7819 30.9489 27.8571 30.75 27.8571H30C29.8011 27.8571 29.6103 27.7819 29.4697 27.6479C29.329 27.514 29.25 27.3323 29.25 27.1429V25C29.25 24.8106 29.329 24.6289 29.4697 24.4949C29.6103 24.361 29.8011 24.2857 30 24.2857ZM19.5 24.2857H21C21.1989 24.2857 21.3897 24.361 21.5303 24.4949C21.671 24.6289 21.75 24.8106 21.75 25V27.1429C21.75 27.3323 21.671 27.514 21.5303 27.6479C21.3897 27.7819 21.1989 27.8571 21 27.8571H20.25C20.0511 27.8571 19.8603 27.7819 19.7197 27.6479C19.579 27.514 19.5 27.3323 19.5 27.1429V24.2857ZM26.2058 32.8865C26.2303 32.9109 26.25 32.9512 26.25 33C26.25 33.3156 25.9814 33.5714 25.65 33.5714H24.8571C24.8409 33.5714 24.8174 33.5653 24.7942 33.5421C24.7697 33.5176 24.75 33.4774 24.75 33.4286V33C24.75 32.9512 24.7697 32.9109 24.7942 32.8865C24.8174 32.8633 24.8409 32.8571 24.8571 32.8571H26.1429C26.1591 32.8571 26.1826 32.8633 26.2058 32.8865Z" fill="white"/>
</svg>
