<svg width="15" height="20" viewBox="0 0 15 20" fill="none" xmlns="http://www.w3.org/2000/svg">
<path fill-rule="evenodd" clip-rule="evenodd" d="M3.25736 3.10225C4.38258 2.03061 5.9087 1.42857 7.5 1.42857C9.0913 1.42857 10.6174 2.03061 11.7426 3.10225C12.8679 4.17388 13.5 5.62733 13.5 7.14286V7.85714H12C11.4033 7.85714 10.831 8.08291 10.409 8.48477C9.98705 8.88663 9.75 9.43168 9.75 10V12.1429C9.75 12.7112 9.98705 13.2562 10.409 13.6581C10.831 14.0599 11.4033 14.2857 12 14.2857H12.75C12.8582 14.2857 12.9656 14.2783 13.0714 14.2637C12.7725 14.976 12.3232 15.6306 11.7426 16.1835C11.1442 16.7534 10.4324 17.1905 9.65765 17.4749C9.58097 17.2632 9.45768 17.0669 9.29205 16.9013C8.99379 16.603 8.58123 16.4286 8.14286 16.4286H6.85714C6.41877 16.4286 6.00621 16.603 5.70795 16.9013C5.41087 17.1984 5.25 17.5942 5.25 18V18.4286C5.25 18.8344 5.41087 19.2302 5.70795 19.5273C6.00621 19.8255 6.41877 20 6.85714 20H7.65C8.40899 20 9.07394 19.6165 9.44288 19.0419C10.703 18.72 11.8647 18.0875 12.8033 17.1936C14.2075 15.8562 14.9974 14.0431 15 12.152L15 12.1429V7.14286C15 5.24845 14.2098 3.43164 12.8033 2.09209C11.3968 0.752549 9.48912 0 7.5 0C5.51088 0 3.60322 0.752549 2.1967 2.09209C0.790176 3.43164 0 5.24845 0 7.14286V12.1429C0 12.7112 0.237053 13.2562 0.65901 13.6581C1.08097 14.0599 1.65326 14.2857 2.25 14.2857H3C3.59674 14.2857 4.16903 14.0599 4.59099 13.6581C5.01295 13.2562 5.25 12.7112 5.25 12.1429V10C5.25 9.43168 5.01295 8.88663 4.59099 8.48477C4.16903 8.08291 3.59674 7.85714 3 7.85714H1.5V7.14286C1.5 5.62733 2.13214 4.17388 3.25736 3.10225ZM12 9.28571H13.5V12.1384L13.5 12.1429L13.5 12.1484C13.4985 12.3358 13.4196 12.5153 13.2803 12.6479C13.1397 12.7819 12.9489 12.8571 12.75 12.8571H12C11.8011 12.8571 11.6103 12.7819 11.4697 12.6479C11.329 12.514 11.25 12.3323 11.25 12.1429V10C11.25 9.81056 11.329 9.62888 11.4697 9.49492C11.6103 9.36097 11.8011 9.28571 12 9.28571ZM1.5 9.28571H3C3.19891 9.28571 3.38968 9.36097 3.53033 9.49492C3.67098 9.62888 3.75 9.81056 3.75 10V12.1429C3.75 12.3323 3.67098 12.514 3.53033 12.6479C3.38968 12.7819 3.19891 12.8571 3 12.8571H2.25C2.05109 12.8571 1.86032 12.7819 1.71967 12.6479C1.57902 12.514 1.5 12.3323 1.5 12.1429V9.28571ZM8.20584 17.8865C8.23026 17.9109 8.25 17.9512 8.25 18C8.25 18.3156 7.98137 18.5714 7.65 18.5714H6.85714C6.84086 18.5714 6.81739 18.5653 6.79416 18.5421C6.76974 18.5176 6.75 18.4774 6.75 18.4286V18C6.75 17.9512 6.76974 17.9109 6.79416 17.8865C6.81739 17.8633 6.84086 17.8571 6.85714 17.8571H8.14286C8.15914 17.8571 8.18261 17.8633 8.20584 17.8865Z" fill="#6B779A"/>
</svg>
