<svg width="15" height="16" viewBox="0 0 15 16" fill="none" xmlns="http://www.w3.org/2000/svg">
<path fill-rule="evenodd" clip-rule="evenodd" d="M6.82623 0.153199C7.08886 -0.0510662 7.45661 -0.0510662 7.71924 0.153199L14.2647 5.24411C14.4419 5.3819 14.5455 5.59376 14.5455 5.81819V13.8182C14.5455 14.3969 14.3156 14.9518 13.9064 15.361C13.4973 15.7702 12.9423 16 12.3637 16H2.18182C1.60317 16 1.04821 15.7702 0.639041 15.361C0.22987 14.9518 0 14.3969 0 13.8182V5.81819C0 5.59376 0.103617 5.3819 0.280771 5.24411L6.82623 0.153199ZM1.45455 6.17389V13.8182C1.45455 14.0111 1.53117 14.1961 1.66756 14.3325C1.80395 14.4689 1.98894 14.5455 2.18182 14.5455H12.3637C12.5565 14.5455 12.7415 14.4689 12.8779 14.3325C13.0143 14.1961 13.0909 14.0111 13.0909 13.8182V6.17389L7.27274 1.64863L1.45455 6.17389Z" fill="white"/>
<path fill-rule="evenodd" clip-rule="evenodd" d="M4.36364 8.00003C4.36364 7.59837 4.68925 7.27276 5.09092 7.27276H9.45456C9.85622 7.27276 10.1818 7.59837 10.1818 8.00003V15.2728C10.1818 15.6744 9.85622 16 9.45456 16C9.0529 16 8.72729 15.6744 8.72729 15.2728V8.72731H5.81819V15.2728C5.81819 15.6744 5.49258 16 5.09092 16C4.68925 16 4.36364 15.6744 4.36364 15.2728V8.00003Z" fill="white"/>
</svg>
