<svg width="19" height="20" viewBox="0 0 19 20" fill="none" xmlns="http://www.w3.org/2000/svg">
<path fill-rule="evenodd" clip-rule="evenodd" d="M8.53279 0.191498C8.86108 -0.0638327 9.32077 -0.0638327 9.64905 0.191498L17.8309 6.55514C18.0523 6.72738 18.1818 6.9922 18.1818 7.27274V17.2727C18.1818 17.9961 17.8945 18.6898 17.383 19.2012C16.8716 19.7127 16.1779 20 15.4546 20H2.72728C2.00396 20 1.31026 19.7127 0.798801 19.2012C0.287337 18.6898 0 17.9961 0 17.2727V7.27274C0 6.9922 0.129521 6.72738 0.350964 6.55514L8.53279 0.191498ZM1.81818 7.71736V17.2727C1.81818 17.5139 1.91396 17.7451 2.08445 17.9156C2.25494 18.0861 2.48617 18.1818 2.72728 18.1818H15.4546C15.6957 18.1818 15.9269 18.0861 16.0974 17.9156C16.2679 17.7451 16.3637 17.5139 16.3637 17.2727V7.71736L9.09092 2.06079L1.81818 7.71736Z" fill="#6B779A"/>
<path fill-rule="evenodd" clip-rule="evenodd" d="M5.45455 10C5.45455 9.49796 5.86157 9.09095 6.36365 9.09095H11.8182C12.3203 9.09095 12.7273 9.49796 12.7273 10V19.091C12.7273 19.593 12.3203 20.0001 11.8182 20.0001C11.3161 20.0001 10.9091 19.593 10.9091 19.091V10.9091H7.27274V19.091C7.27274 19.593 6.86572 20.0001 6.36365 20.0001C5.86157 20.0001 5.45455 19.593 5.45455 19.091V10Z" fill="#6B779A"/>
</svg>
