<svg width="40" height="40" viewBox="0 0 40 40" fill="none" xmlns="http://www.w3.org/2000/svg">
<path fill-rule="evenodd" clip-rule="evenodd" d="M12.5334 25.1473C12.8425 25.4358 13.0358 25.8469 13.0358 26.3031C13.0358 27.1761 12.3281 27.8838 11.455 27.8838C10.582 27.8838 9.87427 27.1761 9.87427 26.3031C9.87427 25.4301 10.582 24.7223 11.455 24.7223C11.6246 24.7223 11.788 24.749 11.9411 24.7985L12.7245 23.4417L13.3197 23.7854L12.5334 25.1473ZM12.3485 26.3031C12.3485 26.7965 11.9485 27.1966 11.455 27.1966C10.9616 27.1966 10.5616 26.7965 10.5616 26.3031C10.5616 25.8096 10.9616 25.4096 11.455 25.4096C11.9485 25.4096 12.3485 25.8096 12.3485 26.3031Z" fill="#0360AD"/>
<mask id="mask0" mask-type="alpha" maskUnits="userSpaceOnUse" x="2" y="2" width="36" height="36">
<circle cx="20" cy="20" r="16.4381" fill="black" stroke="black" stroke-width="3"/>
</mask>
<g mask="url(#mask0)">
<path d="M2.06189 15.2577H37.9382V24.0549H2.06189V15.2577Z" fill="#0360AD"/>
</g>
<path fill-rule="evenodd" clip-rule="evenodd" d="M20 39.1753C30.5902 39.1753 39.1753 30.5902 39.1753 20C39.1753 9.4098 30.5902 0.824742 20 0.824742C9.4098 0.824742 0.824742 9.4098 0.824742 20C0.824742 30.5902 9.4098 39.1753 20 39.1753ZM20 40C31.0457 40 40 31.0457 40 20C40 8.9543 31.0457 0 20 0C8.9543 0 0 8.9543 0 20C0 31.0457 8.9543 40 20 40Z" fill="#0360AD"/>
<path fill-rule="evenodd" clip-rule="evenodd" d="M20 37.5258C29.6793 37.5258 37.5258 29.6793 37.5258 20C37.5258 10.3208 29.6793 2.47426 20 2.47426C10.3208 2.47426 2.47426 10.3208 2.47426 20C2.47426 29.6793 10.3208 37.5258 20 37.5258ZM20 37.9382C29.907 37.9382 37.9382 29.907 37.9382 20C37.9382 10.0931 29.907 2.06189 20 2.06189C10.0931 2.06189 2.06189 10.0931 2.06189 20C2.06189 29.907 10.0931 37.9382 20 37.9382Z" fill="#0360AD"/>
<path d="M8.54435 17.18V22.8178H7.68662V17.18H6.86462V16.4027H9.36634V17.18H8.54435Z" fill="white"/>
<path d="M9.75772 22.8178V16.4027H11.8842V17.18H10.6155V19.1278H11.7412V19.9051H10.6155V22.0405H11.8842V22.8178H9.75772Z" fill="white"/>
<path d="M14.0432 18.1271V17.5642C14.0432 17.3081 13.9181 17.18 13.6679 17.18H13.5339C13.2897 17.18 13.1676 17.3081 13.1676 17.5642V18.6275C13.1676 18.7466 13.1914 18.827 13.239 18.8687C13.2867 18.9104 13.3641 18.964 13.4714 19.0295L14.2844 19.4673C14.4631 19.5686 14.5882 19.649 14.6597 19.7086C14.7371 19.7622 14.7967 19.8307 14.8384 19.9141C14.8801 19.9915 14.9009 20.1434 14.9009 20.3697V21.7367C14.9009 22.4575 14.5554 22.8178 13.8645 22.8178H13.3373C12.6523 22.8178 12.3098 22.4247 12.3098 21.6384V21.3168H13.1676V21.6653C13.1676 21.9154 13.2956 22.0405 13.5518 22.0405H13.7037C13.93 22.0405 14.0432 21.9154 14.0432 21.6653V20.5752C14.0432 20.4561 14.0193 20.3757 13.9717 20.334C13.924 20.2923 13.8466 20.2387 13.7394 20.1732L12.9263 19.7175C12.7476 19.6222 12.6166 19.5418 12.5332 19.4763C12.4558 19.4107 12.3992 19.3273 12.3634 19.2261C12.3277 19.1189 12.3098 18.9819 12.3098 18.8151V17.5017C12.3098 16.769 12.6523 16.4027 13.3373 16.4027H13.8734C14.5584 16.4027 14.9009 16.769 14.9009 17.5017V18.1271H14.0432Z" fill="white"/>
<path d="M16.8876 17.18V22.8178H16.0298V17.18H15.2078V16.4027H17.7095V17.18H16.8876Z" fill="white"/>
<path d="M18.1009 22.8178V16.4027H20.2274V17.18H18.9587V19.1278H20.0844V19.9051H18.9587V22.0405H20.2274V22.8178H18.1009Z" fill="white"/>
<path d="M20.7424 22.8178V16.4027H22.2345C23.0386 16.4027 23.4407 16.8137 23.4407 17.6357V21.8886C23.4407 22.5081 23.0982 22.8178 22.4132 22.8178H20.7424ZM21.6001 22.0405H22.2434C22.4698 22.0405 22.5829 21.9452 22.5829 21.7546V17.6446C22.5829 17.3349 22.4549 17.18 22.1987 17.18H21.6001V22.0405Z" fill="white"/>
<path d="M27.4691 22.8178H25.432V16.4027H26.2897V22.0405H27.4691V22.8178Z" fill="white"/>
<path d="M28.6771 22.8178H27.8194V17.5017C27.8194 16.769 28.1619 16.4027 28.8469 16.4027H29.4902C30.1752 16.4027 30.5177 16.769 30.5177 17.5017V22.8178H29.6599V20.468H28.6771V22.8178ZM29.6599 19.6907V17.5553C29.6599 17.3051 29.5348 17.18 29.2847 17.18H29.0524C28.8022 17.18 28.6771 17.3051 28.6771 17.5553V19.6907H29.6599Z" fill="white"/>
<path d="M33.1698 19.5209C33.6404 19.652 33.8756 19.8962 33.8756 20.2536V21.8618C33.8756 22.4992 33.551 22.8178 32.9018 22.8178H31.1774V16.4027H32.6427C33.4051 16.4027 33.7863 16.7899 33.7863 17.5642V18.7972C33.7863 19.1665 33.5808 19.3929 33.1698 19.4763V19.5209ZM32.0351 22.0405H32.6784C32.9047 22.0405 33.0179 21.9482 33.0179 21.7635V20.3429C33.0179 20.0391 32.8482 19.8872 32.5086 19.8872H32.0351V22.0405ZM32.0351 19.1099H32.4372C32.7648 19.1099 32.9286 18.9551 32.9286 18.6453V17.6446C32.9286 17.3349 32.8005 17.18 32.5444 17.18H32.0351V19.1099Z" fill="white"/>
<path d="M18.4517 34.0788H18.8679V35.4639H18.5982V34.5271C18.5982 34.5001 18.5986 34.4625 18.5992 34.4143C18.5998 34.3654 18.6001 34.3279 18.6001 34.3015L18.338 35.4639H18.057L17.7967 34.3015C17.7967 34.3279 17.797 34.3654 17.7977 34.4143C17.7983 34.4625 17.7986 34.5001 17.7986 34.5271V35.4639H17.5289V34.0788H17.9499L18.2017 35.1679L18.4517 34.0788Z" fill="#0360AD"/>
<path d="M20.1821 34.3241H19.4491V34.6182H20.1219V34.8588H19.4491V35.2149H20.2159V35.4639H19.1663V34.0788H20.1821V34.3241ZM20.0016 33.687L19.716 33.968H19.5224L19.7028 33.687H20.0016Z" fill="#0360AD"/>
<path d="M20.6834 35.4639H20.347L20.7924 34.7582L20.3686 34.0788H20.7144L20.9615 34.5289L21.2152 34.0788H21.5497L21.126 34.7469L21.576 35.4639H21.2246L20.9615 34.9922L20.6834 35.4639Z" fill="#0360AD"/>
<path d="M22.0323 35.4639H21.7447V34.0788H22.0323V35.4639Z" fill="#0360AD"/>
<path d="M22.2639 34.7826C22.2639 34.5408 22.3288 34.3545 22.4584 34.2236C22.5712 34.1095 22.7146 34.0525 22.8888 34.0525C23.1218 34.0525 23.2922 34.129 23.4 34.2818C23.4595 34.3676 23.4914 34.4538 23.4958 34.5402H23.2064C23.1876 34.4738 23.1635 34.4237 23.134 34.3899C23.0814 34.3297 23.0034 34.2997 22.9001 34.2997C22.7948 34.2997 22.7118 34.3423 22.6511 34.4275C22.5903 34.512 22.5599 34.632 22.5599 34.7873C22.5599 34.9427 22.5919 35.0592 22.6558 35.1369C22.7203 35.2139 22.802 35.2525 22.901 35.2525C23.0025 35.2525 23.0798 35.2193 23.1331 35.1529C23.1625 35.1172 23.187 35.0636 23.2064 34.9922H23.493C23.4679 35.1432 23.4037 35.2659 23.3004 35.3605C23.1976 35.4551 23.0658 35.5024 22.9048 35.5024C22.7056 35.5024 22.5489 35.4385 22.4349 35.3107C22.3209 35.1823 22.2639 35.0063 22.2639 34.7826Z" fill="#0360AD"/>
<path d="M24.3486 35.2572C24.4632 35.2572 24.554 35.2149 24.6211 35.1303C24.6887 35.0457 24.7225 34.9255 24.7225 34.7695C24.7225 34.6141 24.6887 34.4942 24.6211 34.4096C24.554 34.3244 24.4632 34.2818 24.3486 34.2818C24.2339 34.2818 24.1425 34.3241 24.0742 34.4087C24.0059 34.4932 23.9718 34.6135 23.9718 34.7695C23.9718 34.9255 24.0059 35.0457 24.0742 35.1303C24.1425 35.2149 24.2339 35.2572 24.3486 35.2572ZM25.0119 34.7695C25.0119 35.0182 24.9421 35.2086 24.8024 35.3408C24.6978 35.4485 24.5465 35.5024 24.3486 35.5024C24.1506 35.5024 23.9993 35.4485 23.8947 35.3408C23.7544 35.2086 23.6842 35.0182 23.6842 34.7695C23.6842 34.5158 23.7544 34.3253 23.8947 34.1982C23.9993 34.0904 24.1506 34.0366 24.3486 34.0366C24.5465 34.0366 24.6978 34.0904 24.8024 34.1982C24.9421 34.3253 25.0119 34.5158 25.0119 34.7695Z" fill="#0360AD"/>
<path fill-rule="evenodd" clip-rule="evenodd" d="M20.4811 23.4417L22.4316 26.8201H27.5706L29.5212 23.4417L30.1164 23.7854L28.2067 27.093L29.7498 29.5976L29.1646 29.9581L27.6547 27.5074H22.4122L21.6618 28.8072L21.0666 28.4636L21.8267 27.147L19.8859 23.7854L20.4811 23.4417Z" fill="#0360AD"/>
<path fill-rule="evenodd" clip-rule="evenodd" d="M20.8315 30.5237C21.3249 30.5237 21.725 30.1237 21.725 29.6303C21.725 29.1368 21.3249 28.7368 20.8315 28.7368C20.338 28.7368 19.938 29.1368 19.938 29.6303C19.938 30.1237 20.338 30.5237 20.8315 30.5237ZM20.8315 31.211C21.7045 31.211 22.4122 30.5033 22.4122 29.6303C22.4122 28.7572 21.7045 28.0495 20.8315 28.0495C19.9585 28.0495 19.2507 28.7572 19.2507 29.6303C19.2507 30.5033 19.9585 31.211 20.8315 31.211Z" fill="#0360AD"/>
<path fill-rule="evenodd" clip-rule="evenodd" d="M30.1475 31.6958C30.641 31.6958 31.041 31.2958 31.041 30.8023C31.041 30.3089 30.641 29.9088 30.1475 29.9088C29.6541 29.9088 29.2541 30.3089 29.2541 30.8023C29.2541 31.2958 29.6541 31.6958 30.1475 31.6958ZM30.1475 32.3831C31.0206 32.3831 31.7283 31.6753 31.7283 30.8023C31.7283 29.9293 31.0206 29.2216 30.1475 29.2216C29.2745 29.2216 28.5668 29.9293 28.5668 30.8023C28.5668 31.6753 29.2745 32.3831 30.1475 32.3831Z" fill="#0360AD"/>
<path fill-rule="evenodd" clip-rule="evenodd" d="M11.4323 8.99522C11.9258 8.99522 12.3258 8.5952 12.3258 8.10175C12.3258 7.6083 11.9258 7.20828 11.4323 7.20828C10.9389 7.20828 10.5388 7.6083 10.5388 8.10175C10.5388 8.5952 10.9389 8.99522 11.4323 8.99522ZM12.474 9.29076C12.8044 9.00103 13.0131 8.57575 13.0131 8.10175C13.0131 7.22872 12.3053 6.521 11.4323 6.521C10.5593 6.521 9.85156 7.22872 9.85156 8.10175C9.85156 8.97478 10.5593 9.68251 11.4323 9.68251C11.5845 9.68251 11.7317 9.661 11.871 9.62085L13.4232 12.3093L11.5895 15.4853L12.1847 15.829L14.0187 12.6525H19.2003L21.0343 15.829L21.6295 15.4853L19.8269 12.3632V12.2554L20.4286 11.2134C20.5549 11.2459 20.6875 11.2632 20.824 11.2632C21.697 11.2632 22.4048 10.5555 22.4048 9.68247C22.4048 8.80944 21.697 8.10171 20.824 8.10171C19.951 8.10171 19.2432 8.80944 19.2432 9.68247C19.2432 10.1723 19.466 10.6101 19.8158 10.9001L19.2009 11.9652H14.0181L12.474 9.29076ZM20.824 10.5759C21.3175 10.5759 21.7175 10.1759 21.7175 9.68247C21.7175 9.18901 21.3175 8.78899 20.824 8.78899C20.3306 8.78899 19.9305 9.18901 19.9305 9.68247C19.9305 10.1759 20.3306 10.5759 20.824 10.5759Z" fill="#0360AD"/>
</svg>
