<svg width="138" height="138" viewBox="0 0 138 138" fill="none" xmlns="http://www.w3.org/2000/svg">
<path fill-rule="evenodd" clip-rule="evenodd" d="M43.2401 86.7582C44.3066 87.7536 44.9733 89.1718 44.9733 90.7458C44.9733 93.7577 42.5317 96.1994 39.5197 96.1994C36.5078 96.1994 34.0661 93.7577 34.0661 90.7458C34.0661 87.7338 36.5078 85.2922 39.5197 85.2922C40.1048 85.2922 40.6685 85.3843 41.1968 85.5549L43.8993 80.874L45.9528 82.0596L43.2401 86.7582ZM42.6022 90.7458C42.6022 92.4482 41.2221 93.8282 39.5197 93.8282C37.8173 93.8282 36.4372 92.4482 36.4372 90.7458C36.4372 89.0434 37.8173 87.6633 39.5197 87.6633C41.2221 87.6633 42.6022 89.0434 42.6022 90.7458Z" fill="#0360AD"/>
<mask id="mask0" mask-type="alpha" maskUnits="userSpaceOnUse" x="7" y="7" width="124" height="124">
<circle cx="69" cy="69" r="60.3866" fill="black" stroke="black" stroke-width="3"/>
</mask>
<g mask="url(#mask0)">
<path d="M7.11353 52.6392H130.887V82.9897H7.11353V52.6392Z" fill="#0360AD"/>
</g>
<path fill-rule="evenodd" clip-rule="evenodd" d="M69 135.155C105.536 135.155 135.155 105.536 135.155 69C135.155 32.4638 105.536 2.84536 69 2.84536C32.4638 2.84536 2.84536 32.4638 2.84536 69C2.84536 105.536 32.4638 135.155 69 135.155ZM69 138C107.108 138 138 107.108 138 69C138 30.8924 107.108 0 69 0C30.8924 0 0 30.8924 0 69C0 107.108 30.8924 138 69 138Z" fill="#0360AD"/>
<path fill-rule="evenodd" clip-rule="evenodd" d="M69 129.464C102.393 129.464 129.464 102.393 129.464 69C129.464 35.6067 102.393 8.53608 69 8.53608C35.6067 8.53608 8.53608 35.6067 8.53608 69C8.53608 102.393 35.6067 129.464 69 129.464ZM69 130.887C103.179 130.887 130.887 103.179 130.887 69C130.887 34.821 103.179 7.1134 69 7.1134C34.821 7.1134 7.1134 34.821 7.1134 69C7.1134 103.179 34.821 130.887 69 130.887Z" fill="#0360AD"/>
<path d="M29.478 59.2712V78.7216H26.5188V59.2712H23.6829V56.5895H32.3139V59.2712H29.478Z" fill="white"/>
<path d="M33.6641 78.7216V56.5895H41.0004V59.2712H36.6233V65.991H40.5072V68.6728H36.6233V76.0399H41.0004V78.7216H33.6641Z" fill="white"/>
<path d="M48.4489 62.5387V60.5967C48.4489 59.7131 48.0174 59.2712 47.1543 59.2712H46.6919C45.8494 59.2712 45.4281 59.7131 45.4281 60.5967V64.2648C45.4281 64.6758 45.5103 64.9533 45.6747 65.0971C45.8391 65.241 46.1062 65.4259 46.4761 65.652L49.2812 67.1624C49.8977 67.5117 50.3292 67.7891 50.5758 67.9946C50.843 68.1796 51.0485 68.4159 51.1923 68.7036C51.3362 68.9708 51.4081 69.4948 51.4081 70.2757V74.9918C51.4081 77.4784 50.2162 78.7216 47.8324 78.7216H46.0138C43.6505 78.7216 42.4689 77.3654 42.4689 74.6528V73.5431H45.4281V74.7453C45.4281 75.6083 45.8699 76.0399 46.7536 76.0399H47.2776C48.0585 76.0399 48.4489 75.6083 48.4489 74.7453V70.9846C48.4489 70.5736 48.3667 70.2962 48.2023 70.1524C48.0379 70.0085 47.7708 69.8236 47.4009 69.5975L44.5958 68.0255C43.9793 67.6967 43.5272 67.4192 43.2395 67.1932C42.9724 66.9671 42.7772 66.6794 42.6539 66.3301C42.5306 65.9602 42.4689 65.4876 42.4689 64.9122V60.3809C42.4689 57.8533 43.6505 56.5895 46.0138 56.5895H47.8632C50.2265 56.5895 51.4081 57.8533 51.4081 60.3809V62.5387H48.4489Z" fill="white"/>
<path d="M58.262 59.2712V78.7216H55.3028V59.2712H52.467V56.5895H61.0979V59.2712H58.262Z" fill="white"/>
<path d="M62.4482 78.7216V56.5895H69.7845V59.2712H65.4073V65.991H69.2913V68.6728H65.4073V76.0399H69.7845V78.7216H62.4482Z" fill="white"/>
<path d="M71.5612 78.7216V56.5895H76.7089C79.4832 56.5895 80.8703 58.0074 80.8703 60.8433V75.5159C80.8703 77.6531 79.6887 78.7216 77.3254 78.7216H71.5612ZM74.5204 76.0399H76.7398C77.5207 76.0399 77.9111 75.7111 77.9111 75.0535V60.8741C77.9111 59.8055 77.4693 59.2712 76.5856 59.2712H74.5204V76.0399Z" fill="white"/>
<path d="M94.7684 78.7216H87.7403V56.5895H90.6995V76.0399H94.7684V78.7216Z" fill="white"/>
<path d="M98.936 78.7216H95.9768V60.3809C95.9768 57.8533 97.1584 56.5895 99.5217 56.5895H101.741C104.104 56.5895 105.286 57.8533 105.286 60.3809V78.7216H102.327V70.6147H98.936V78.7216ZM102.327 67.933V60.5659C102.327 59.7028 101.895 59.2712 101.032 59.2712H100.231C99.3675 59.2712 98.936 59.7028 98.936 60.5659V67.933H102.327Z" fill="white"/>
<path d="M114.436 67.3473C116.059 67.7994 116.871 68.642 116.871 69.8749V75.4234C116.871 77.6222 115.751 78.7216 113.511 78.7216H107.562V56.5895H112.617C115.248 56.5895 116.563 57.9252 116.563 60.5967V64.8505C116.563 66.1246 115.854 66.9055 114.436 67.1932V67.3473ZM110.521 76.0399H112.74C113.521 76.0399 113.912 75.7214 113.912 75.0843V70.1832C113.912 69.1351 113.326 68.6111 112.155 68.6111H110.521V76.0399ZM110.521 65.9294H111.908C113.038 65.9294 113.604 65.3951 113.604 64.3265V60.8741C113.604 59.8055 113.162 59.2712 112.278 59.2712H110.521V65.9294Z" fill="white"/>
<path d="M63.6584 117.572H65.0945V122.351H64.1641V119.118C64.1641 119.026 64.1652 118.896 64.1674 118.729C64.1695 118.561 64.1706 118.431 64.1706 118.34L63.2662 122.351H62.2969L61.3989 118.34C61.3989 118.431 61.4 118.561 61.4021 118.729C61.4043 118.896 61.4054 119.026 61.4054 119.118V122.351H60.475V117.572H61.9273L62.7961 121.329L63.6584 117.572Z" fill="#0360AD"/>
<path d="M69.6282 118.418H67.0997V119.433H69.4208V120.263H67.0997V121.491H69.745V122.351H66.1239V117.572H69.6282V118.418ZM69.0058 116.22L68.0203 117.19H67.3525L67.9749 116.22H69.0058Z" fill="#0360AD"/>
<path d="M71.3578 122.351H70.1973L71.7339 119.916L70.2718 117.572H71.4648L72.3174 119.125L73.1927 117.572H74.3468L72.8847 119.877L74.4375 122.351H73.2251L72.3174 120.723L71.3578 122.351Z" fill="#0360AD"/>
<path d="M76.0115 122.351H75.0195V117.572H76.0115V122.351Z" fill="#0360AD"/>
<path d="M76.8107 120C76.8107 119.166 77.0344 118.523 77.4817 118.071C77.8708 117.678 78.3657 117.481 78.9665 117.481C79.7704 117.481 80.3583 117.745 80.73 118.272C80.9353 118.568 81.0455 118.866 81.0607 119.164H80.0622C79.9974 118.935 79.9142 118.762 79.8126 118.645C79.631 118.438 79.362 118.334 79.0054 118.334C78.6423 118.334 78.3559 118.481 78.1463 118.775C77.9367 119.067 77.8319 119.48 77.8319 120.016C77.8319 120.552 77.9421 120.954 78.1625 121.222C78.3851 121.488 78.6672 121.621 79.0086 121.621C79.3587 121.621 79.6256 121.507 79.8093 121.278C79.9109 121.154 79.9952 120.97 80.0622 120.723H81.051C80.9645 121.244 80.743 121.668 80.3864 121.994C80.0319 122.32 79.577 122.483 79.0216 122.483C78.3343 122.483 77.794 122.263 77.4007 121.822C77.0074 121.379 76.8107 120.772 76.8107 120Z" fill="#0360AD"/>
<path d="M84.0027 121.637C84.3982 121.637 84.7116 121.491 84.9428 121.2C85.1762 120.908 85.2929 120.493 85.2929 119.955C85.2929 119.419 85.1762 119.005 84.9428 118.713C84.7116 118.419 84.3982 118.272 84.0027 118.272C83.6072 118.272 83.2917 118.418 83.0561 118.71C82.8205 119.002 82.7027 119.417 82.7027 119.955C82.7027 120.493 82.8205 120.908 83.0561 121.2C83.2917 121.491 83.6072 121.637 84.0027 121.637ZM86.2914 119.955C86.2914 120.813 86.0504 121.47 85.5685 121.926C85.2076 122.298 84.6856 122.483 84.0027 122.483C83.3197 122.483 82.7978 122.298 82.4369 121.926C81.9528 121.47 81.7107 120.813 81.7107 119.955C81.7107 119.08 81.9528 118.423 82.4369 117.984C82.7978 117.612 83.3197 117.426 84.0027 117.426C84.6856 117.426 85.2076 117.612 85.5685 117.984C86.0504 118.423 86.2914 119.08 86.2914 119.955Z" fill="#0360AD"/>
<path fill-rule="evenodd" clip-rule="evenodd" d="M70.6598 80.874L77.3892 92.5297H95.1187L101.848 80.874L103.902 82.0596L97.313 93.4712L102.637 102.112L100.618 103.356L95.4088 94.9008H77.3222L74.7332 99.3851L72.6797 98.1996L75.3022 93.6573L68.6063 82.0596L70.6598 80.874Z" fill="#0360AD"/>
<path fill-rule="evenodd" clip-rule="evenodd" d="M71.8686 105.307C73.5711 105.307 74.9511 103.927 74.9511 102.224C74.9511 100.522 73.5711 99.1419 71.8686 99.1419C70.1662 99.1419 68.7862 100.522 68.7862 102.224C68.7862 103.927 70.1662 105.307 71.8686 105.307ZM71.8686 107.678C74.8806 107.678 77.3223 105.236 77.3223 102.224C77.3223 99.2125 74.8806 96.7708 71.8686 96.7708C68.8567 96.7708 66.415 99.2125 66.415 102.224C66.415 105.236 68.8567 107.678 71.8686 107.678Z" fill="#0360AD"/>
<path fill-rule="evenodd" clip-rule="evenodd" d="M104.009 109.351C105.711 109.351 107.091 107.971 107.091 106.268C107.091 104.566 105.711 103.186 104.009 103.186C102.307 103.186 100.926 104.566 100.926 106.268C100.926 107.971 102.307 109.351 104.009 109.351ZM104.009 111.722C107.021 111.722 109.463 109.28 109.463 106.268C109.463 103.256 107.021 100.815 104.009 100.815C100.997 100.815 98.5553 103.256 98.5553 106.268C98.5553 109.28 100.997 111.722 104.009 111.722Z" fill="#0360AD"/>
<path fill-rule="evenodd" clip-rule="evenodd" d="M39.4414 31.0334C41.1438 31.0334 42.5239 29.6533 42.5239 27.9509C42.5239 26.2485 41.1438 24.8684 39.4414 24.8684C37.739 24.8684 36.3589 26.2485 36.3589 27.9509C36.3589 29.6533 37.739 31.0334 39.4414 31.0334ZM43.0352 32.053C44.1752 31.0535 44.895 29.5862 44.895 27.9509C44.895 24.939 42.4533 22.4973 39.4414 22.4973C36.4295 22.4973 33.9878 24.939 33.9878 27.9509C33.9878 30.9629 36.4295 33.4045 39.4414 33.4045C39.9665 33.4045 40.4742 33.3303 40.9547 33.1918L46.3099 42.4672L39.9837 53.4244L42.0372 54.61L48.3644 43.651H66.2409L72.5681 54.61L74.6216 53.4244L68.4027 42.6531V42.2813L70.4784 38.6862C70.9144 38.7984 71.3715 38.8582 71.8426 38.8582C74.8546 38.8582 77.2962 36.4165 77.2962 33.4046C77.2962 30.3926 74.8546 27.951 71.8426 27.951C68.8307 27.951 66.389 30.3926 66.389 33.4046C66.389 35.0945 67.1577 36.605 68.3645 37.6053L66.243 41.2798H48.3623L43.0352 32.053ZM71.8426 36.487C73.545 36.487 74.9251 35.107 74.9251 33.4046C74.9251 31.7022 73.545 30.3221 71.8426 30.3221C70.1402 30.3221 68.7601 31.7022 68.7601 33.4046C68.7601 35.107 70.1402 36.487 71.8426 36.487Z" fill="#0360AD"/>
</svg>
