<svg width="100" height="100" viewBox="0 0 100 100" fill="none" xmlns="http://www.w3.org/2000/svg">
<path fill-rule="evenodd" clip-rule="evenodd" d="M31.3337 62.8682C32.1064 63.5896 32.5896 64.6172 32.5896 65.7577C32.5896 67.9403 30.8202 69.7096 28.6377 69.7096C26.4551 69.7096 24.6858 67.9403 24.6858 65.7577C24.6858 63.5752 26.4551 61.8059 28.6377 61.8059C29.0617 61.8059 29.4702 61.8726 29.8531 61.9963L31.8114 58.6044L33.2994 59.4635L31.3337 62.8682ZM30.8714 65.7577C30.8714 66.9914 29.8713 67.9914 28.6377 67.9914C27.4041 67.9914 26.404 66.9914 26.404 65.7577C26.404 64.5241 27.4041 63.5241 28.6377 63.5241C29.8713 63.5241 30.8714 64.5241 30.8714 65.7577Z" fill="#0360AD"/>
<mask id="mask0" mask-type="alpha" maskUnits="userSpaceOnUse" x="5" y="5" width="90" height="90">
<circle cx="49.9997" cy="50.0001" r="43.3454" fill="black" stroke="black" stroke-width="3"/>
</mask>
<g mask="url(#mask0)">
<path d="M5.1543 38.1442H94.845V60.1374H5.1543V38.1442Z" fill="#0360AD"/>
</g>
<path fill-rule="evenodd" clip-rule="evenodd" d="M50 97.9381C76.4755 97.9381 97.9381 76.4755 97.9381 50C97.9381 23.5245 76.4755 2.06186 50 2.06186C23.5245 2.06186 2.06186 23.5245 2.06186 50C2.06186 76.4755 23.5245 97.9381 50 97.9381ZM50 100C77.6142 100 100 77.6142 100 50C100 22.3858 77.6142 0 50 0C22.3858 0 0 22.3858 0 50C0 77.6142 22.3858 100 50 100Z" fill="#0360AD"/>
<path fill-rule="evenodd" clip-rule="evenodd" d="M49.9997 93.8145C74.1977 93.8145 93.8141 74.1981 93.8141 50.0001C93.8141 25.802 74.1977 6.18565 49.9997 6.18565C25.8016 6.18565 6.18522 25.802 6.18522 50.0001C6.18522 74.1981 25.8016 93.8145 49.9997 93.8145ZM49.9997 94.8455C74.7671 94.8455 94.845 74.7675 94.845 50.0001C94.845 25.2327 74.7671 5.15472 49.9997 5.15472C25.2323 5.15472 5.1543 25.2327 5.1543 50.0001C5.1543 74.7675 25.2323 94.8455 49.9997 94.8455Z" fill="#0360AD"/>
<path d="M21.3612 42.9501V57.0446H19.2168V42.9501H17.1619V41.0068H23.4162V42.9501H21.3612Z" fill="white"/>
<path d="M24.3946 57.0446V41.0068H29.7108V42.9501H26.5389V47.8195H29.3534V49.7628H26.5389V55.1013H29.7108V57.0446H24.3946Z" fill="white"/>
<path d="M35.1082 45.3178V43.9106C35.1082 43.2702 34.7955 42.9501 34.1701 42.9501H33.835C33.2245 42.9501 32.9192 43.2702 32.9192 43.9106V46.5686C32.9192 46.8665 32.9788 47.0675 33.0979 47.1717C33.2171 47.276 33.4106 47.41 33.6787 47.5738L35.7113 48.6683C36.1581 48.9214 36.4708 49.1225 36.6495 49.2714C36.8431 49.4054 36.992 49.5767 37.0962 49.7851C37.2004 49.9787 37.2526 50.3584 37.2526 50.9243V54.3418C37.2526 56.1437 36.3889 57.0446 34.6615 57.0446H33.3436C31.6311 57.0446 30.7749 56.0618 30.7749 54.0961V53.292H32.9192V54.1631C32.9192 54.7886 33.2394 55.1013 33.8797 55.1013H34.2594C34.8253 55.1013 35.1082 54.7886 35.1082 54.1631V51.438C35.1082 51.1402 35.0487 50.9392 34.9295 50.835C34.8104 50.7307 34.6168 50.5967 34.3488 50.4329L32.3161 49.2937C31.8694 49.0555 31.5418 48.8544 31.3333 48.6906C31.1397 48.5268 30.9983 48.3183 30.9089 48.0652C30.8196 47.7972 30.7749 47.4547 30.7749 47.0377V43.7542C30.7749 41.9226 31.6311 41.0068 33.3436 41.0068H34.6838C36.3963 41.0068 37.2526 41.9226 37.2526 43.7542V45.3178H35.1082Z" fill="white"/>
<path d="M42.2192 42.9501V57.0446H40.0749V42.9501H38.0199V41.0068H44.2742V42.9501H42.2192Z" fill="white"/>
<path d="M45.2526 57.0446V41.0068H50.5688V42.9501H47.397V47.8195H50.2114V49.7628H47.397V55.1013H50.5688V57.0446H45.2526Z" fill="white"/>
<path d="M51.8563 57.0446V41.0068H55.5865C57.5968 41.0068 58.602 42.0343 58.602 44.0892V54.7216C58.602 56.2702 57.7457 57.0446 56.0333 57.0446H51.8563ZM54.0006 55.1013H55.6089C56.1747 55.1013 56.4577 54.863 56.4577 54.3865V44.1116C56.4577 43.3372 56.1375 42.9501 55.4972 42.9501H54.0006V55.1013Z" fill="white"/>
<path d="M68.6731 57.0446H63.5803V41.0068H65.7246V55.1013H68.6731V57.0446Z" fill="white"/>
<path d="M71.6931 57.0446H69.5488V43.7542C69.5488 41.9226 70.405 41.0068 72.1175 41.0068H73.7257C75.4382 41.0068 76.2945 41.9226 76.2945 43.7542V57.0446H74.1501V51.17H71.6931V57.0446ZM74.1501 49.2267V43.8882C74.1501 43.2628 73.8374 42.9501 73.212 42.9501H72.6312C72.0058 42.9501 71.6931 43.2628 71.6931 43.8882V49.2267H74.1501Z" fill="white"/>
<path d="M82.9248 48.8023C84.1012 49.1299 84.6894 49.7405 84.6894 50.6339V54.6545C84.6894 56.2479 83.8778 57.0446 82.2547 57.0446H77.9437V41.0068H81.6069C83.513 41.0068 84.466 41.9747 84.466 43.9106V46.993C84.466 47.9163 83.9523 48.4821 82.9248 48.6906V48.8023ZM80.088 55.1013H81.6963C82.2622 55.1013 82.5451 54.8705 82.5451 54.4088V50.8573C82.5451 50.0978 82.1207 49.7181 81.2719 49.7181H80.088V55.1013ZM80.088 47.7748H81.0932C81.9122 47.7748 82.3217 47.3876 82.3217 46.6133V44.1116C82.3217 43.3372 82.0016 42.9501 81.3612 42.9501H80.088V47.7748Z" fill="white"/>
<path d="M46.1296 85.1971H47.1702V88.6597H46.4961V86.3176C46.4961 86.2503 46.4968 86.1563 46.4984 86.0357C46.5 85.9136 46.5007 85.8196 46.5007 85.7539L45.8453 88.6597H45.143L44.4923 85.7539C44.4923 85.8196 44.493 85.9136 44.4946 86.0357C44.4962 86.1563 44.497 86.2503 44.497 86.3176V88.6597H43.8228V85.1971H44.8752L45.5047 87.9197L46.1296 85.1971Z" fill="#0360AD"/>
<path d="M50.4556 85.8102H48.6232V86.5455H50.3052V87.1469H48.6232V88.0372H50.5401V88.6597H47.9162V85.1971H50.4556V85.8102ZM50.0045 84.2175L49.2904 84.9199H48.8065L49.2575 84.2175H50.0045Z" fill="#0360AD"/>
<path d="M51.7089 88.6597H50.8679L51.9814 86.8955L50.9219 85.1971H51.7864L52.4042 86.3223L53.0385 85.1971H53.8748L52.8153 86.8673L53.9405 88.6597H53.062L52.4042 87.4805L51.7089 88.6597Z" fill="#0360AD"/>
<path d="M55.0811 88.6597H54.3623V85.1971H55.0811V88.6597Z" fill="#0360AD"/>
<path d="M55.6602 86.9566C55.6602 86.3521 55.8223 85.8862 56.1465 85.5589C56.4284 85.2739 56.787 85.1313 57.2224 85.1313C57.805 85.1313 58.231 85.3224 58.5003 85.7045C58.6491 85.9191 58.729 86.1344 58.7399 86.3505H58.0164C57.9694 86.1845 57.9091 86.0592 57.8355 85.9747C57.704 85.8243 57.509 85.7492 57.2506 85.7492C56.9875 85.7492 56.78 85.8556 56.6281 86.0686C56.4762 86.2801 56.4002 86.58 56.4002 86.9683C56.4002 87.3567 56.4801 87.648 56.6398 87.8422C56.8011 88.0348 57.0055 88.1312 57.2529 88.1312C57.5066 88.1312 57.7 88.0482 57.8332 87.8822C57.9068 87.7929 57.9678 87.659 58.0164 87.4805H58.7329C58.6702 87.8579 58.5097 88.1648 58.2513 88.4013C57.9945 88.6378 57.6648 88.756 57.2623 88.756C56.7643 88.756 56.3728 88.5963 56.0878 88.2768C55.8027 87.9558 55.6602 87.5157 55.6602 86.9566Z" fill="#0360AD"/>
<path d="M60.8718 88.1429C61.1584 88.1429 61.3855 88.0372 61.5531 87.8258C61.7222 87.6144 61.8068 87.3137 61.8068 86.9237C61.8068 86.5353 61.7222 86.2354 61.5531 86.024C61.3855 85.811 61.1584 85.7045 60.8718 85.7045C60.5852 85.7045 60.3566 85.8102 60.1859 86.0217C60.0152 86.2331 59.9298 86.5338 59.9298 86.9237C59.9298 87.3137 60.0152 87.6144 60.1859 87.8258C60.3566 88.0372 60.5852 88.1429 60.8718 88.1429ZM62.5303 86.9237C62.5303 87.5454 62.3557 88.0215 62.0064 88.352C61.7449 88.6213 61.3667 88.756 60.8718 88.756C60.3769 88.756 59.9987 88.6213 59.7372 88.352C59.3864 88.0215 59.211 87.5454 59.211 86.9237C59.211 86.2895 59.3864 85.8134 59.7372 85.4955C59.9987 85.2261 60.3769 85.0914 60.8718 85.0914C61.3667 85.0914 61.7449 85.2261 62.0064 85.4955C62.3557 85.8134 62.5303 86.2895 62.5303 86.9237Z" fill="#0360AD"/>
<path fill-rule="evenodd" clip-rule="evenodd" d="M51.2026 58.6044L56.0789 67.0505H68.9263L73.8027 58.6044L75.2907 59.4635L70.5165 67.7327L74.3742 73.9942L72.9113 74.8955L69.1366 68.7687H56.0306L54.1545 72.0183L52.6664 71.1592L54.5668 67.8677L49.7146 59.4635L51.2026 58.6044Z" fill="#0360AD"/>
<path fill-rule="evenodd" clip-rule="evenodd" d="M52.0786 76.3093C53.3122 76.3093 54.3123 75.3092 54.3123 74.0756C54.3123 72.842 53.3122 71.8419 52.0786 71.8419C50.845 71.8419 49.8449 72.842 49.8449 74.0756C49.8449 75.3092 50.845 76.3093 52.0786 76.3093ZM52.0786 78.0275C54.2612 78.0275 56.0305 76.2582 56.0305 74.0756C56.0305 71.893 54.2612 70.1237 52.0786 70.1237C49.896 70.1237 48.1267 71.893 48.1267 74.0756C48.1267 76.2582 49.896 78.0275 52.0786 78.0275Z" fill="#0360AD"/>
<path fill-rule="evenodd" clip-rule="evenodd" d="M75.3691 79.2395C76.6028 79.2395 77.6028 78.2395 77.6028 77.0058C77.6028 75.7722 76.6028 74.7722 75.3691 74.7722C74.1355 74.7722 73.1354 75.7722 73.1354 77.0058C73.1354 78.2395 74.1355 79.2395 75.3691 79.2395ZM75.3691 80.9577C77.5517 80.9577 79.321 79.1884 79.321 77.0058C79.321 74.8233 77.5517 73.054 75.3691 73.054C73.1866 73.054 71.4172 74.8233 71.4172 77.0058C71.4172 79.1884 73.1866 80.9577 75.3691 80.9577Z" fill="#0360AD"/>
<path fill-rule="evenodd" clip-rule="evenodd" d="M28.5808 22.4881C29.8144 22.4881 30.8145 21.488 30.8145 20.2544C30.8145 19.0208 29.8144 18.0207 28.5808 18.0207C27.3472 18.0207 26.3471 19.0208 26.3471 20.2544C26.3471 21.488 27.3472 22.4881 28.5808 22.4881ZM31.1852 23.2268C32.0112 22.5024 32.5327 21.4393 32.5327 20.2544C32.5327 18.0718 30.7634 16.3025 28.5808 16.3025C26.3982 16.3025 24.6289 18.0718 24.6289 20.2544C24.6289 22.4369 26.3982 24.2063 28.5808 24.2063C28.9614 24.2063 29.3294 24.1525 29.6777 24.0521L33.5582 30.7734L28.9741 38.7134L30.4621 39.5725L35.0469 31.6313H48.0015L52.5863 39.5725L54.0743 38.7134L49.5677 30.9076V30.6386L51.0717 28.0335C51.3875 28.1148 51.7186 28.158 52.0598 28.158C54.2424 28.158 56.0117 26.3887 56.0117 24.2061C56.0117 22.0235 54.2424 20.2542 52.0598 20.2542C49.8772 20.2542 48.1079 22.0235 48.1079 24.2061C48.1079 25.4309 48.6651 26.5256 49.5398 27.2504L48.0026 29.913H35.0455L31.1852 23.2268ZM52.0598 26.4398C53.2934 26.4398 54.2935 25.4397 54.2935 24.2061C54.2935 22.9725 53.2934 21.9724 52.0598 21.9724C50.8262 21.9724 49.8261 22.9725 49.8261 24.2061C49.8261 25.4397 50.8262 26.4398 52.0598 26.4398Z" fill="#0360AD"/>
</svg>
