<svg width="21" height="21" viewBox="0 0 21 21" fill="none" xmlns="http://www.w3.org/2000/svg">
<path d="M20.3468 9.63838L15.145 4.51521C14.8097 4.18391 14.2673 4.18821 13.9353 4.52377C13.6033 4.85933 13.6067 5.39981 13.9439 5.73112L17.6612 9.39245H7.69999C7.22688 9.39245 6.84446 9.77411 6.84446 10.2463C6.84446 10.7185 7.22688 11.1002 7.69999 11.1002H17.6612L13.9439 14.7615C13.6068 15.0928 13.6042 15.6333 13.9353 15.9689C14.103 16.1379 14.3237 16.2233 14.5445 16.2233C14.7618 16.2233 14.9791 16.1413 15.145 15.9774L20.3468 10.8542C20.5094 10.6937 20.6018 10.4751 20.6018 10.2462C20.6018 10.0175 20.5102 9.79977 20.3468 9.63838Z" fill="#0061AC"/>
<path d="M10.2667 18.7849H2.56665C2.09438 18.7849 1.71111 18.4024 1.71111 17.9311V2.5616C1.71111 2.09027 2.09442 1.70776 2.56665 1.70776H10.2667C10.7398 1.70776 11.1222 1.3261 11.1222 0.853921C11.1222 0.381742 10.7398 0 10.2667 0H2.56665C1.15157 0 0 1.14932 0 2.5616V17.9311C0 19.3433 1.15157 20.4926 2.56665 20.4926H10.2667C10.7398 20.4926 11.1222 20.111 11.1222 19.6388C11.1222 19.1666 10.7398 18.7849 10.2667 18.7849Z" fill="#0061AC"/>
</svg>
