<svg width="16" height="14" viewBox="0 0 16 14" fill="none" xmlns="http://www.w3.org/2000/svg">
<path fill-rule="evenodd" clip-rule="evenodd" d="M1 5.99991H12.865L9.232 1.63991C8.878 1.21591 8.936 0.584909 9.36 0.231909C9.785 -0.122091 10.415 -0.0640909 10.768 0.359909L15.768 6.35991C15.807 6.40691 15.827 6.46191 15.856 6.51391C15.88 6.55591 15.909 6.59191 15.927 6.63791C15.972 6.75291 15.999 6.87391 15.999 6.99591C15.999 6.99691 16 6.99891 16 6.99991C16 7.00091 15.999 7.00291 15.999 7.00391C15.999 7.12591 15.972 7.24691 15.927 7.36191C15.909 7.40791 15.88 7.44391 15.856 7.48591C15.827 7.53791 15.807 7.59291 15.768 7.63991L10.768 13.6399C10.57 13.8769 10.286 13.9999 10 13.9999C9.774 13.9999 9.547 13.9239 9.36 13.7679C8.936 13.4149 8.878 12.7839 9.232 12.3599L12.865 7.99991H1C0.448 7.99991 0 7.55191 0 6.99991C0 6.44791 0.448 5.99991 1 5.99991Z" fill="#222222"/>
</svg>
