<svg width="51" height="51" viewBox="0 0 51 51" fill="none" xmlns="http://www.w3.org/2000/svg">
<circle cx="25.5" cy="25.5" r="25.5" fill="#25D366"/>
<path d="M33.0703 17.9648C31.2285 16.0781 28.7129 15 26.0176 15C20.5371 15 16.0449 19.4922 16.0449 24.9727C16.0449 26.7695 16.5391 28.4766 17.3926 29.959L16 35.125L21.2559 33.7773C22.7383 34.541 24.3555 34.9902 26.0176 34.9902C31.543 34.9902 36.125 30.498 36.125 25.0176C36.125 22.3223 34.957 19.8516 33.0703 17.9648ZM26.0176 33.2832C24.5352 33.2832 23.0977 32.8789 21.7949 32.1152L21.5254 31.9355L18.3809 32.7891L19.2344 29.7344L19.0098 29.4199C18.2012 28.0723 17.752 26.5449 17.752 24.9727C17.752 20.4355 21.4805 16.707 26.0625 16.707C28.2637 16.707 30.3301 17.5605 31.9023 19.1328C33.4746 20.7051 34.418 22.7715 34.418 25.0176C34.418 29.5547 30.5996 33.2832 26.0176 33.2832ZM30.5996 27.084C30.3301 26.9492 29.1172 26.3652 28.8926 26.2754C28.668 26.1855 28.4883 26.1406 28.3086 26.4102C28.1738 26.6348 27.6797 27.2188 27.5449 27.3984C27.3652 27.5332 27.2305 27.5781 27.0059 27.4434C25.5234 26.7246 24.5801 26.1406 23.5918 24.4785C23.3223 24.0293 23.8613 24.0742 24.3105 23.1309C24.4004 22.9512 24.3555 22.8164 24.3105 22.6816C24.2656 22.5469 23.7266 21.334 23.5469 20.8398C23.3223 20.3457 23.1426 20.3906 22.9629 20.3906C22.8281 20.3906 22.6484 20.3906 22.5137 20.3906C22.334 20.3906 22.0645 20.4355 21.8398 20.7051C21.6152 20.9746 20.9863 21.5586 20.9863 22.7715C20.9863 24.0293 21.8398 25.1973 21.9746 25.377C22.1094 25.5117 23.7266 28.0273 26.2422 29.1055C27.8145 29.8242 28.4434 29.8691 29.252 29.7344C29.7012 29.6895 30.6895 29.1504 30.9141 28.5664C31.1387 27.9824 31.1387 27.4883 31.0488 27.3984C31.0039 27.2637 30.8242 27.2188 30.5996 27.084Z" fill="white"/>
</svg>
